<?xml version="1.0" encoding="UTF-8" standalone="no"?><!DOCTYPE svg PUBLIC "-//W3C//DTD SVG 1.1//EN" "http://www.w3.org/Graphics/SVG/1.1/DTD/svg11.dtd"><svg width="100%" height="100%" viewBox="0 0 860 588" version="1.1" xmlns="http://www.w3.org/2000/svg" xmlns:xlink="http://www.w3.org/1999/xlink" xml:space="preserve" xmlns:serif="http://www.serif.com/" style="fill-rule:evenodd;clip-rule:evenodd;stroke-linejoin:round;stroke-miterlimit:2;"><rect id="Mesa-de-trabajo1" serif:id="Mesa de trabajo1" x="0" y="0" width="859.3" height="587.3" style="fill:none;"/><clipPath id="_clip1"><rect x="0" y="0" width="859.3" height="587.3"/></clipPath><g clip-path="url(#_clip1)"><g id="Todo"><g id="Electro-Obra"><path d="M706.7,433.5c2.8,1.3 2.8,1.3 38.4,1.1c0,0 3.7,-0.2 4,-0.2c2.5,0.8 2.4,1.1 5,1.3c10,3.7 10.2,4.8 10.3,4.8c0.4,0 0.5,-0.9 0.9,-0.8c13,12.7 10.9,36.7 -4.3,44.1c-3.2,1.5 -5.3,1.6 -3.2,4.3c2.4,3 16.3,28.4 17,30c2.9,6.1 3.4,-1.4 11.4,-27.1c1.7,-5.4 14.5,-50 17.7,-57.2c6.4,2.2 10.5,-0.1 30.4,1.1c6.3,22.7 25.8,87 25.3,87.9c-0.6,1.1 -21.8,1 -22.6,0.2c-1.8,-1.6 -3.7,-18.3 -6.9,-18.5c-2.1,-0.1 -25.7,-1.5 -26.6,0.7c-1.3,3.3 -4,17.8 -6.4,18.1c-2.2,0.3 -19.5,0 -36.1,0.2c-4.7,0 -6.5,2.1 -10.5,-5.3c-14.5,-27.1 -13.8,-28.3 -16.4,-28.7c-9,-1.4 -6.4,3.3 -6.6,7.4c-0.9,17.5 1.8,26.4 -2.5,26.5c-17.7,0.3 -18,0.6 -19,-0.5c-0.2,-0.2 -1.1,-86.2 0.6,-89.3Zm41,36.9c-1.4,0.8 -6.8,4 -19.6,2.4c-1.5,-4.2 -0.8,-22.7 -0.1,-23c0.2,-0.1 12.4,-1.3 17,0.4c7.2,2.7 8,15.5 2.8,20.3Zm61.3,17.5c-0.2,-1.7 -0.3,-2.9 5.2,-21c2.4,-7.7 3.2,-17 4.8,-9.1c2.3,11.2 3.3,10.8 7.6,29.7c-2,1 -16.2,0.4 -17.6,0.3Z" style="fill:#fcc800;fill-opacity:0.99;"/><path d="M555.9,434.5c0.5,0.2 0.7,0.7 1.2,0.9c0.5,0.2 1.8,-0.7 2.9,-0.9c1.7,-0.2 1.4,-0.9 3,-0.9c2.2,-0 1.9,-1.3 4,-1c1.1,0.2 20.8,-1.8 28.2,3.7c1,0.7 1.3,0.2 2.1,1c0.8,0.8 1.1,-0.7 2,0c0.3,0.2 -0.1,0.4 2.9,3.2c6.8,6.4 5.7,9.8 6.8,9.2c0.5,-0.2 0.7,-0.8 1.2,-1.1c1.8,4.4 3.3,8.3 3.4,19.1c0.3,27.8 -0.7,28.3 -1.1,30.1c-0.7,3.5 -5.3,27.1 -35.5,27.1c-29.2,-0.1 -37.3,-14.6 -38.3,-37.1c-2,-43.4 8.2,-48.6 17.2,-53.4Zm12.5,70.9c-8.1,-6.2 -5.4,-17.9 -5.9,-41.5c-0.4,-18.8 18.4,-18.7 24.4,-10.9c5.5,7.2 3.1,43.8 1.6,47.1c-1.4,3 -1.3,3 -3.7,5.4c-4.8,2.2 -4.9,1.7 -9.7,1.9c-3.5,-0.7 -3.4,-0.8 -6.7,-2Zm0,-0c3.3,1.2 3.2,1.3 6.7,2l-1,1.1c-1.9,0.2 -1.9,0.2 -2,0.2c-2.6,-0 -4.7,-2.1 -4.7,-2.2c0,-0.5 1,-0.6 1,-1.1Z" style="fill:#fdcc00;fill-opacity:1;"/><path d="M480.8,472.9c-0,28.7 1.9,53.6 -43.8,51.5c-5.1,-0.2 -13.4,-2.3 -18.8,-5.8c-8.5,-5.6 -10.3,-14.7 -10.6,-15.6l1.7,-1.1l-0.3,-1l-0.3,-1c-1.2,-51.7 1.5,-52.2 8.2,-59.1c2.3,-2.4 8.5,-5.2 10.2,-5.5c1.6,-0.3 1.3,-1.2 3,-1c2,0.2 4.7,-1.9 16.9,-0.9c19.7,1.5 19.9,4.8 27.2,13.3c2.2,2.6 3,7.8 3.1,8.1c1.3,3.2 2.1,16.8 2.2,17.1c0.2,0.5 1.1,0.5 1.3,1Zm-22.2,-14.9c0.5,2.8 1.7,8.7 0.8,35.9c-0.4,12.6 -12,14 -18.3,13c-11.4,-1.8 -10.9,-9.6 -11.5,-13c-0,-1.4 -0,-8 0,-18c-0,-8.7 -3,-26.4 12.5,-27.3c15.3,-0.9 16.3,8.5 16.6,9.4Z" style="fill:#0f2439;fill-opacity:1;"/><path d="M626.7,433.4c4.8,2.4 5.1,1.1 14.4,1.2c15.1,0.1 15,0.2 28,-0c1,-0 2,-0.2 3,0c0.4,0.1 0.6,0.7 1,0.9c2.5,0.7 2.8,-0.2 5,1.1c1,0.6 1.1,-0.7 2.1,-0.2c0.5,0.2 0.4,1.1 0.9,1.3c0.3,0.2 0.8,-0.4 1.1,-0.2c1.4,0.7 0.5,1.7 2,2.1c0,0 1.3,-0.6 2.1,0.8c0.2,0.3 -0.1,0.7 0.1,0.9c0.3,0.2 0.8,-0.3 1,-0c0.2,0.3 -0.2,0.8 -0,1.1c1.5,2.8 2.4,0.9 3,1.2c5.5,9.2 3.7,24.9 -7.2,29.7c-4,1.8 -0.3,2.6 1,3.1c0.1,1.4 -0.3,1.6 0.9,2.2c5.5,2.8 4.8,3.7 5.2,3.9c0.4,0.2 0.6,-1.2 1,-1c8.5,10.5 9.1,36.4 -17.3,41.6c-3,0.6 -47.1,0.2 -47.2,0.2c-1.4,-0.3 -1.2,-0.9 -1.2,-26.4c-0,-62 0.1,-62.1 0.9,-63.5Zm20.9,71.5c-0,-20.4 -1,-22.4 2.5,-22.4c16,-0.1 23.9,-1.5 24.6,13.3c0.3,7.5 -7.5,10.1 -8.5,10.4c-3.4,0.3 -3.3,0.7 -13.1,0.7c-3.4,0 -4.4,1.1 -5.5,-2.1Zm-0.1,-39.1c0,-14.6 -0.3,-17.3 1.5,-17.4c4.1,-0.2 24.7,-2.8 21.1,12.4c-0.7,2.9 -1.1,2.7 -3.2,4.7c-1.3,0.6 -8.5,4 -17.9,2.5c-1.6,-0.2 -1.1,-0.8 -1.6,-2.3Z" style="fill:#fdca00;fill-opacity:0.99;"/><path d="M395.3,468.9c-0.4,1.8 -0.2,4.7 -4.6,10.6c-4,5.4 -8.4,3.4 -8.7,8.4l-0.9,-0.2c-0,0.1 -1.5,-0.5 -1,1.2c0.2,0.6 6.2,10.3 6.7,11.2c0.7,1.1 6.7,11.8 7.2,12.9c1.1,2 1.1,1.9 2.2,3.9c0.4,0.7 0.7,0.2 1.2,0.9c0.1,0.2 -0.4,0.4 1,3c0.1,0.2 0.1,0.2 1.8,2.6c-20.6,0.3 -20.7,0.6 -22.1,-0.5c-3.5,-2.8 -15.9,-32.6 -18.9,-33.3c-1,-0.2 -0.9,-0.1 -6.1,0.4l-1,-0.6l-1,-0.4c-1,3.9 -0.6,9.3 -0.5,20c-0.1,10.7 -0.1,10.6 -0.5,14.5c-1.4,0 -1.3,-0 -17,0.1c-0.9,-2.2 -1,-2.1 -1,-4.5c-0.1,-6.6 -0.6,-46.9 0,-83c0,-0.5 0.3,-1 34,-0.9c24.9,0.1 25.9,12 27.8,24.8l0.1,1l0,1l0,1l0,1c-0,0.1 -0.5,0.8 -0.5,2c-0.1,2.7 1.8,3 1.9,3Zm-42.7,-8c0,-5.8 -1,-11.4 2.5,-11.5c15.3,-0.2 19.9,-0.8 20.6,14.4c-1.5,11.7 -7.5,11.3 -20.5,11.3c-3.5,0 -2.4,-4.2 -2.5,-14.3Z" style="fill:#0f2439;fill-opacity:1;"/><path d="M0.8,433.7c3.6,1.9 3.9,1.3 18.2,1.4c24.2,0.1 31.3,-0.1 34,-0.1c3.4,-0.1 3.5,0.9 3.6,1c0,2 0.4,12.3 -0.5,13.1c-0.5,0.4 -1.9,0.4 -2.1,0.4c-2.4,-0 -24.8,-0.3 -30.1,0c-2.1,0.1 -1.5,7.7 -1.3,16.5c-1.6,2.5 -1,2.9 -0.6,2.9c2.1,-0.1 28.9,0.3 29.7,0c-0,3.1 0.3,13.3 -0.6,14.1c-1,1 -1.2,0.4 -7.1,0.4c-1.6,-0 -18.4,-0.2 -20.1,0.1c-2.6,0.5 -1.3,19.5 -0.8,21.4c-1.4,0.2 -2,-0.4 -2.1,1.1c-0.3,3 31,0.2 36.1,1.6l0.7,0.4c-0,8.3 0.2,14.4 -0.6,15.1c-0.6,0.6 -8,0.4 -9.1,0.4c-42.4,-0 -42.5,0.5 -46.1,-0.1c-2,-0.3 -1.6,-4.3 -1.6,-16.4c0.1,-67.1 -0.3,-71 0.4,-73.2Z" style="fill:#091c30;fill-opacity:0.99;"/><path d="M182.3,433.7c0.4,1.1 0.8,2.4 0.5,14.2c-0.1,3.2 -24.8,0.9 -31.8,1.6c-2.5,0.3 -1.7,6.4 -1.7,15.5c-0.6,0.7 -0.9,0.2 -1.6,1c-0.1,0.1 -0.1,0.1 -0.1,1c-0.2,2.7 6.3,2.2 10.6,2.2c18.6,0.1 18.9,-0.6 20,0.6l0.8,0.2c-0,11 0,11 -0.1,12c-0.3,2.4 -8.1,1.5 -25.7,1.5c-5.6,-0 -3.7,2.5 -3.7,4.5l-1.8,1l-0.1,1l-0,1l0,1l-0,1l0,1c-0.5,11.9 -0.3,13.4 3.6,13.3c30.3,-0.3 30.8,-0.2 33.3,0.7c0,9.4 0.7,14.9 -1.4,15.5c-0.4,0.1 -9.1,0 -9.9,0c-43.1,-0.4 -45.6,1.3 -45.5,-2.6c0.1,-7.3 -0,-78.6 0.1,-86c6.5,0.4 52.6,0.3 53.4,0c0.6,-0.2 0.7,-1 1.3,-1.2Z" style="fill:#0b1f33;fill-opacity:1;"/><path d="M250,437.9c0.1,4.9 1.7,15.1 -2,14.2c-0.6,-0.2 -0.5,-0.6 -7.9,-2.4c-0.1,-0 -12.8,-1 -17,-0.4c-5.9,0.9 -8.6,7.7 -9,8.6c-0.4,-0.6 -0.7,-1.3 -1.1,-1.9l-0.6,0.8l-0.2,1l-0.4,1l-0.3,1c-0,0.5 -0.1,0.4 -0.1,1c-0,0.6 -0,0.5 -0.1,7l0,1l0,1l0,1l-0,1l0.1,1l1.9,1c-0,9.5 -0,9.4 0.1,19l-1.8,1l0,1c0.3,1.1 -0.8,17 24.2,13.5c3.2,-0.4 11.7,-2.6 12,-2.8c0.7,-0.4 1.2,-1.3 1.9,-1.6c0.3,2 1.1,16.2 -0.8,17c-4.6,1.9 -49.5,14 -57.4,-20c-1.5,-6.5 -1.4,-21.6 -1.2,-35.1c0.5,-0.5 1.3,-0.5 1.8,-1c0.3,-0.3 0.3,-0.4 0.5,-6l0.2,-1l0.1,-1.3c0.4,-0.9 2.4,-11 9.1,-16.5c1.2,-1 1.4,-0.7 2.6,-1.6c10,-6.9 27.5,-5.4 34.3,-3.9c5.5,1.2 5.3,1.9 10.9,3.3Z" style="fill:#0c2135;fill-opacity:1;"/><path d="M258.7,433.5c0.6,0.4 0.8,1.1 1.4,1.5c0.2,0.1 59.6,-0.1 59.9,0.1c0.6,0.3 0.5,5.3 0.5,5.8c-0,0.2 -0,0.1 -0.4,2l-0,1l0,1l0,1l0,1l0.1,1c-0.1,0.5 -0.1,1 -0.2,1.5c-4.5,-0.1 -18,0 -18,0c-2.6,0.1 -1.4,1.8 -1.7,71.4c-0,3.5 -4.1,2.5 -5.2,2.5c-13.8,-0.1 -17.1,0.5 -17.2,-1.5c-0.9,-35.6 1.5,-35.5 0.3,-71c-0.1,-3.1 -16.3,-0.7 -19.3,-1.6c-1.6,-0.5 -1.3,-13.3 -0.2,-15.7Z" style="fill:#10253b;fill-opacity:1;"/><path d="M67.7,433.6c0.7,0.1 0.7,1.3 1.3,1.5c2.5,0.5 14.4,-1.2 20.4,0.8c-0,22.3 -0,44.7 -0,67c-0.2,0.3 0.2,0.7 0.1,0.9c-0.3,0.5 -0.9,0.6 -1.2,1.1c-2,3.1 8.5,2.3 18.8,2.3c5.8,0 13.3,-0.8 13.5,1.7c-0.2,12.9 0.4,13.2 -0.5,14c-1.7,1.6 -2.1,0.5 -29,0.5c-23,0 -23,-0.4 -23.1,-0.5c-1.2,-1.1 -0.9,-87.5 -0.3,-89.4Z" style="fill:#0a1e32;fill-opacity:0.99;"/><path d="M493.3,490.5c-1.1,-2.5 -1.6,-18.3 0.7,-18.9c0.6,-0.2 31.4,-0.1 32.2,0c2.2,0.4 2.6,18.9 -0.1,19c-14.9,0.6 -30.1,-0 -32.7,-0.1Z" style="fill:#172c41;fill-opacity:0.99;"/><path d="M395.3,468.9c-0,-0 -2,-0.3 -1.9,-3c0.1,-1.2 0.5,-2 0.5,-2l-0,-1l-0,-1l-0,-1l-0.1,-1c-1.9,-12.9 -2.8,-24.7 -27.8,-24.8c-33.6,-0.1 -33.9,0.4 -34,0.9c-0.6,36 -0.1,76.3 -0,83c0,2.4 0.1,2.3 1,4.5c-0.2,-0 -2.8,0.4 -2.8,-2.5c-0.1,-6.9 -0.8,-84.9 0.2,-86.8c0.5,-1 0.9,-1.2 29.5,-1.1c23.4,0.1 37.7,2.1 35.2,35.9Z" style="fill:#6b7d94;fill-opacity:0.99;"/><path d="M480.8,472.9c-0.2,-0.5 -1.1,-0.5 -1.3,-1c-0.1,-0.3 -0.9,-13.9 -2.2,-17.1c-0.1,-0.2 -0.9,-5.5 -3.1,-8.1c-7.3,-8.5 -7.5,-11.8 -27.2,-13.3c-12.3,-1 -14.9,1.2 -16.9,0.9c-1.6,-0.2 -1.4,0.7 -3,1c-1.7,0.3 -7.9,3.1 -10.2,5.5c-6.7,6.9 -9.4,7.4 -8.2,59.1l0.3,1l0.3,1l-1.7,1.1c-0.4,-2.2 -4.9,-41.7 2.7,-56.9c10.2,-20.7 53.5,-18.7 64.2,-2.8c6.7,9.9 6.1,20 6.2,29.7Z" style="fill:#606f85;fill-opacity:0.99;"/><path d="M458.6,458l1,-1.1c0.5,0.1 0,-0.6 0.4,-0.5c0.1,0 0.5,0.1 0.7,0.6c0.2,0.6 -0.2,1.3 0,1.9l0.2,1l0.2,1l0.1,1l0.1,1l0.1,1l0.1,1l-0,1l0,1c0.2,24.4 3.7,43.1 -18.4,42.2c-15.4,-0.7 -14.5,-10.7 -15.3,-14.2l1.8,-1c0.6,3.5 0.1,11.2 11.5,13c6.4,1 17.9,-0.3 18.3,-13c0.9,-27.2 -0.2,-33.1 -0.8,-35.9Z" style="fill:#516179;fill-opacity:0.99;"/><path d="M258.7,433.5c3.1,-1.1 36.6,-0.2 59.4,-0.6c1.7,-0 3.8,-1 3.8,2.9c0,9 0.8,12.2 -1.8,13.5c0.1,-0.5 0.1,-1 0.2,-1.5l-0.1,-1l-0,-1l-0,-1l-0,-1l0,-1c0.4,-1.9 0.4,-1.9 0.4,-2c0,-0.5 0,-5.5 -0.5,-5.8c-0.3,-0.1 -59.7,0.1 -59.9,-0.1c-0.6,-0.4 -0.8,-1.1 -1.4,-1.5Z" style="fill:#99abbf;fill-opacity:1;"/><path d="M250,437.9c-5.6,-1.3 -5.3,-2 -10.9,-3.3c-6.8,-1.5 -24.3,-3.1 -34.3,3.9c-1.3,0.9 -1.4,0.6 -2.6,1.6c-6.8,5.5 -8.8,15.6 -9.1,16.5c-0.5,-0.6 -0.9,-1.2 -1.4,-1.7c2,-6.9 5.6,-24.4 37.3,-23.6c19.9,0.5 20.6,4.9 20.9,6.7Z" style="fill:#718299;fill-opacity:0.99;"/><path d="M0.8,433.7c1.9,-0.9 2,-0.7 17.2,-0.7c2.9,0 34.6,0 36,0c3,0 2.4,1.9 2.6,2.9c-0.1,-0 -0.1,-1.1 -3.6,-1c-2.7,0.1 -9.8,0.2 -34,0.1c-14.4,-0.1 -14.6,0.6 -18.2,-1.4Z" style="fill:#7b8da4;fill-opacity:1;"/><path d="M626.7,433.4c1.5,-0.6 1.4,-0.6 3.4,-0.6c46.7,-0.4 53.5,0.1 60.4,10.8c-0.6,-0.2 -1.5,1.7 -3,-1.2c-0.2,-0.3 0.3,-0.8 0,-1.1c-0.2,-0.3 -0.8,0.2 -1,0c-0.2,-0.2 0,-0.7 -0.1,-0.9c-0.8,-1.4 -2.1,-0.8 -2.1,-0.8c-1.5,-0.5 -0.6,-1.4 -2,-2.1c-0.3,-0.2 -0.8,0.4 -1.1,0.2c-0.5,-0.3 -0.4,-1.1 -0.9,-1.3c-1,-0.5 -1.1,0.8 -2.1,0.2c-2.3,-1.3 -2.5,-0.4 -5,-1.1c-0.4,-0.1 -0.6,-0.8 -1,-0.9c-1,-0.2 -2,-0 -3,-0c-13,0.2 -12.9,0.1 -28,0c-9.3,-0 -9.6,1.2 -14.4,-1.2Z" style="fill:#fbfb94;fill-opacity:1;"/><path d="M182.3,433.7c-0.6,0.2 -0.7,1 -1.3,1.2c-0.9,0.3 -47,0.3 -53.4,-0c1.2,-2.6 3.6,-1.8 10.4,-1.8c43.8,-0.1 43.7,0.4 44.3,0.7Z" style="fill:#8d9eb4;fill-opacity:1;"/><path d="M555.9,434.5c1.6,-0.7 10.8,-4.5 21.2,-4.1c21.3,0.8 27.2,8.3 33.2,18.3c-0.5,0.2 -0.7,0.8 -1.2,1.1c-1.1,0.5 -0.1,-2.8 -6.8,-9.2c-2.9,-2.8 -2.6,-3 -2.9,-3.2c-0.9,-0.7 -1.3,0.8 -2,-0c-0.8,-0.9 -1.1,-0.3 -2.1,-1c-7.4,-5.5 -27.1,-3.5 -28.2,-3.7c-2.1,-0.3 -1.9,1 -4,1c-1.6,0 -1.4,0.7 -3,0.9c-1.1,0.1 -2.4,1.1 -2.9,0.9c-0.5,-0.2 -0.7,-0.7 -1.2,-0.9Z" style="fill:#fbf785;fill-opacity:0.99;"/><path d="M149.3,487.9c0,14.5 -0.3,14.5 0.3,16.2c0.3,0.8 0.5,1.1 27.4,1c4.7,-0 6.7,-1.9 7.3,2.7c-2.5,-0.9 -3,-1 -33.3,-0.7c-3.8,0 -4.1,-1.5 -3.6,-13.3l-0,-1l0,-1l-0,-1l0,-1l0.1,-1l1.8,-1Z" style="fill:#6c7d93;fill-opacity:0.98;"/><path d="M213.5,492.8c0.1,0.7 -2.1,18.7 27.4,12.6c5,-1 4.8,-2.6 8.9,-1.5c-0.7,0.4 -1.2,1.3 -1.9,1.6c-0.3,0.1 -8.8,2.3 -12,2.8c-25,3.5 -23.8,-12.4 -24.2,-13.5l-0,-1l1.8,-1Z" style="fill:#66778e;fill-opacity:0.99;"/><path d="M352.5,460.9c0.1,10.1 -1,14.3 2.5,14.3c13.1,-0 19,0.3 20.5,-11.3l1.4,1l-0.1,1c-0.9,8.2 -6.1,12.3 -23.9,11.2c-3.1,-0.2 -2.9,-6.5 -2.5,-14.2c0,-1 0,-1 0.1,-1c0.8,-0.8 1.1,-0.2 1.9,-1Z" style="fill:#607188;fill-opacity:0.98;"/><path d="M381.9,487.9c2.7,4.6 19.4,33.6 19.4,33.9c0.1,0.7 -0.1,1 -0.2,1.1c-0.3,0.5 -0.6,-0.1 -0.9,0.4c-1.7,-2.4 -1.7,-2.4 -1.8,-2.6c-1.4,-2.6 -0.9,-2.8 -1,-3c-0.5,-0.7 -0.8,-0.2 -1.2,-0.9c-1.1,-1.9 -1.1,-1.9 -2.2,-3.9c-0.6,-1 -6.5,-11.8 -7.2,-12.9c-0.5,-0.9 -6.6,-10.6 -6.7,-11.2c-0.5,-1.6 1,-1.1 1,-1.2l0.9,0.2Z" style="fill:#5c6c82;fill-opacity:0.99;"/><path d="M23.1,504.8c2.1,0.4 2.4,0.4 27,0.3c5,-0 7.3,-2.2 7.7,2.7l-0.7,-0.4c-5.1,-1.4 -36.4,1.4 -36.1,-1.6c0.1,-1.4 0.7,-0.9 2.1,-1.1Z" style="fill:#798ca2;fill-opacity:0.97;"/><path d="M751,433.4c-0.6,0.3 -1.3,0.7 -1.9,1c-0.3,0 -4,0.2 -4,0.2c-35.5,0.2 -35.6,0.2 -38.4,-1.1c4.1,-1.8 40.8,-0.3 44.3,-0.1Z" style="fill:#fbfc9a;fill-opacity:1;"/><path d="M89.4,502.8c1.1,3.3 2.2,2.2 5.6,2.3c22.1,0.1 22.1,-0 24,0c2.5,0.1 1.3,1.3 1.6,3.8c-0.2,-2.5 -7.7,-1.7 -13.5,-1.7c-10.3,-0 -20.7,0.8 -18.8,-2.3c0.3,-0.4 0.9,-0.6 1.2,-1.1c0.2,-0.3 -0.2,-0.7 -0.1,-0.9Z" style="fill:#7f91a8;fill-opacity:0.97;"/><path d="M149.3,464.9c0.4,3.3 1.8,2.4 10.8,2.4c16.4,-0 18.3,-0.8 18.8,2.6l-0.8,-0.2c-1.1,-1.3 -1.4,-0.6 -20,-0.6c-4.3,-0 -10.8,0.5 -10.6,-2.2c0.1,-0.9 0.1,-0.9 0.1,-1c0.7,-0.8 1,-0.3 1.6,-1Z" style="fill:#72859a;fill-opacity:0.96;"/><path d="M22.6,466c2.6,2.4 3,1.3 6.4,1.3c21.5,-0.4 21.9,0 22.7,1.6c-0.8,0.3 -27.6,-0.1 -29.7,-0c-0.5,0 -1.1,-0.3 0.6,-2.9Z" style="fill:#6a7e94;fill-opacity:0.95;"/><path d="M803.9,433.7c2.8,-1.7 29.3,-1 29.8,-0.5c0.1,0.1 0,0.1 0.7,1.5c-19.9,-1.1 -24.1,1.1 -30.4,-1.1Z" style="fill:#fbfe86;fill-opacity:1;"/><path d="M67.7,433.6c1.3,-0.5 1.7,-0.7 17.3,-0.6c2.8,0 3.9,-0.6 4.4,2.9c-6,-2 -17.8,-0.3 -20.4,-0.8c-0.7,-0.1 -0.7,-1.3 -1.3,-1.5Z" style="fill:#8193ab;fill-opacity:1;"/><path d="M353.1,489.9c-0.3,1.2 -0.7,2.9 -0.5,16c-0.1,3.4 -1.6,2.4 -2,3c-0.1,-10.7 -0.5,-16.1 0.5,-20l1,0.4l1,0.6Z" style="fill:#36465b;fill-opacity:0.98;"/><path d="M747.7,470.4c0,0.6 1.4,1.7 -2.7,3.4c-2.6,1.1 -3.4,1.2 -15.9,0.6c-1.2,-0.1 -1.8,0.7 -1.8,-0.5c0,-0.4 0.7,-0.6 0.7,-1.1c12.8,1.6 18.3,-1.6 19.6,-2.4Z" style="fill:#fcf98c;fill-opacity:0.99;"/><path d="M214.2,457.9c-1,4 -0.7,7.4 -0.7,16l-1.9,-1l-0.1,-1l0,-1l-0,-1l-0,-1l-0,-1c0.1,-6.5 0.1,-6.4 0.1,-7c0,-0.6 0.1,-0.5 0.1,-1l0.3,-1l0.4,-1l0.2,-1l0.6,-0.8c0.4,0.6 0.7,1.3 1.1,1.9Z" style="fill:#304156;fill-opacity:0.98;"/><path d="M809,487.9c1.4,0.1 15.6,0.6 17.6,-0.3c1.4,1.4 3.2,1.3 1.6,2.5c-0.2,0.1 -0.3,0.6 -1.2,0.3c-6.2,-1.8 -19.8,0.4 -19.2,-1.5c0.2,-0.5 1,-0.5 1.1,-0.9Z" style="fill:#faf495;fill-opacity:0.97;"/><path d="M647.5,465.9c0.5,1.5 -0,2.1 1.6,2.3c9.4,1.5 16.6,-1.9 17.9,-2.5c-0.1,3.1 -0.9,2.9 -3.9,3.8c-1.5,0.5 -9.5,-0.3 -13.9,0.2l-1,-0.1l-1,-0.5l0,-1.2c0.1,-0.7 0.2,-1.3 0.4,-2Z" style="fill:#f8ef7f;fill-opacity:0.98;"/><path d="M647.6,504.9c1.1,3.2 2.1,2.1 5.5,2.1c9.8,-0.1 9.7,-0.4 13.1,-0.7c-0.1,1.8 -0,1.8 -0.1,2c-0.4,0.8 -16.4,0.3 -17.9,0.2c-1.8,-0.1 -1,-1.5 -1,-1.5c0.1,-0.7 0.3,-1.3 0.4,-2Z" style="fill:#fcf67c;fill-opacity:1;"/><path d="M352.6,505.9c-0.2,15.1 1.1,16.6 -2.5,17.5c0.4,-3.8 0.4,-3.7 0.5,-14.5c0.4,-0.6 1.9,0.4 2,-3Z" style="fill:#3b4a61;fill-opacity:0.98;"/><path d="M429.6,475.9c-0.1,10 -0,16.5 -0,18c-0.3,-0.7 -1.7,-0.3 -2,-1c-0.1,-0.3 -0.1,-12.8 -0,-13c0.2,-0.7 1.6,-0.3 1.9,-1c0,0 0.1,-2.8 0.1,-3Z" style="fill:#3e4f65;fill-opacity:0.97;"/><path d="M584.8,505.4c0,0.5 0.9,0.6 0.9,1.1c0.1,1.6 -4.3,2 -4.7,2c-2.5,0.2 -2.3,1 -4.9,0.8c-1.6,-0.1 -1.7,-0.8 -2,-0.9l1,-1.1c4.8,-0.2 4.9,0.2 9.7,-1.9Z" style="fill:#f9ed69;fill-opacity:0.99;"/><path d="M756.1,434.7c3.1,1.2 5.3,1.6 9.2,4.9c-0.4,-0 -0.5,0.9 -0.9,0.8c-0.1,-0 -0.3,-1.1 -10.3,-4.8c0.7,-0.3 1.3,-0.7 2,-1Z" style="fill:#f4e969;fill-opacity:0.9;"/><path d="M191.7,454.8c0.5,0.6 0.9,1.2 1.4,1.7l-0.1,1.3l-0.2,1c-0.2,5.6 -0.2,5.7 -0.5,6c-0.5,0.5 -1.3,0.5 -1.8,1c0.6,-5.6 0.5,-5.5 1.2,-11.1Z" style="fill:#35455d;fill-opacity:0.87;"/><path d="M684.3,476.4c3.9,1.5 4.3,2.2 7.2,5.2c-0.4,-0.2 -0.6,1.2 -1,1c-0.5,-0.2 0.3,-1.1 -5.2,-3.9c-1.2,-0.6 -0.9,-0.9 -0.9,-2.2Z" style="fill:#f6ed63;fill-opacity:0.93;"/><path d="M568.4,505.4c3.3,1.2 3.2,1.3 6.7,2l-1,1.1c-1.9,0.2 -1.9,0.2 -2,0.2c-2.6,-0 -4.7,-2.1 -4.7,-2.2c0,-0.5 1,-0.6 1,-1.1Z" style="fill:#f5e76e;fill-opacity:0.89;"/><path d="M751,433.4c1.7,0.4 3.4,0.9 5.1,1.3c-0.7,0.3 -1.3,0.7 -2,1c-2.6,-0.2 -2.5,-0.5 -5,-1.3c0.6,-0.3 1.3,-0.7 1.9,-1Z" style="fill:#f2e772;fill-opacity:0.89;"/><path d="M515.1,473.5c3.5,-0.6 3.4,-0.5 7,-0.5c29,-0.1 -6.4,0.5 -7,0.5Z" style="fill:#3f5065;fill-opacity:0.96;"/><path d="M496.1,473.1c3.1,0 3,-0 6,0.5c-2,-0.2 -4,-0.3 -6,-0.5Z" style="fill:#3b4d63;fill-opacity:0.97;"/></g><g id="Logo"><path d="M493.5,110.9c1.5,-0.6 1.5,-0.6 3,0.1c4,1.8 15.5,4.7 19.2,9.5c-1.8,1.7 -1.2,2.1 -1.4,22.2c-0.1,7.9 3.7,5.8 22.2,16.2c3.6,2 6.5,4.5 6.6,0.8c0.6,-24.9 0.1,-25.3 -1.6,-26.6l1.2,-0.9l1.1,0.5c0.6,0.2 0.4,1.3 0.9,1.5c0.1,0 0.6,-1.2 2,-0.4c2.1,1.2 1.8,1.3 3,3.3c-1,1.6 -0.9,1.7 -0.8,23.6c0,7.3 7,6.8 16.1,12.5c2,1.3 2.2,-0.1 1.9,-2.5c-0.6,-6.5 1.5,-23.2 -1.3,-25.8c3.7,0.1 6.7,2.7 7.1,3.1c0.7,0.6 1.3,1.1 2,1.7c-1.2,0 -2.2,-0.4 -2.2,2.9c0.2,11 0.1,10.9 0.1,22c0,4.6 20.1,11.3 23,14.1c2.3,2.2 0.7,9.6 0.7,9.6c-5.2,7.3 -22.6,-8.9 -23.6,-4.8c-0.1,0.5 0.1,27.6 0.1,30c0,0.9 -0.2,1.4 8.1,5.6c14.7,7.3 16.2,6.7 16.3,10.4c0.7,15.6 -9.6,8.9 -17.3,5.5c-4.2,-1.8 -6.9,-4.6 -6.9,0.5c0.3,28.3 -0.9,31.7 2.5,33.2c16.2,7.2 18.6,6.3 18.7,12.8c0.1,5.7 0.6,52.9 0.2,71c-0.2,9.5 1.7,12.4 -4.8,12.7c-57.3,2 -89.8,-5.9 -133.1,-14.3c0.1,-0.2 1.3,-0.5 1,-2.4c-0,-0.1 -0.1,-0.6 -0.1,-1c0.2,-42.6 0.2,-42.5 0.1,-85c-0.1,-38.6 0.9,-38.9 -1,-42.4c7.2,-1.6 11.3,2.6 13.2,2.9c2.2,0.3 -0.1,-4.9 1.5,-37.5c-1.4,-2.9 -3,-2.7 -5.4,-3.5c-0.5,0.5 -0.6,1.3 -1.2,1.8c-0.2,0.1 -0.3,-0.4 -0.5,-0.4c-1.4,0.4 -1.3,0.7 -1.4,0.7c-3.2,-1 -2.8,-1.7 -3.1,-1.6c-0.5,0.1 -0.8,0.9 -1.3,0.9l-0.7,-1l-1,-1.1c-3.1,-0.6 -3.6,-0.6 -4.1,-3.8c-1.7,-11.1 5.5,-10.2 8.4,-12.8c3.9,-3.5 10.2,4.4 10.2,-1.2c-0.1,-15.1 0,-25.8 0.1,-26c0.4,-4.8 0.1,-5.2 -4.3,-7.3c-7.8,-3.8 -5.1,-6 -5,-14.7c-0.2,-0.9 -0.5,-1.9 -0.7,-2.8c1.3,-3.2 2.5,-1.9 8.6,0.7c4.8,-0.3 2,-2.9 2.1,-14.9c0.2,-12 0.2,-12 0.2,-13c0.1,-6.5 -1.1,-10.9 4.7,-8c2.8,1.4 1,25.7 1.4,38c0.1,3.7 2.3,3.8 5.4,5.3c17.4,8.5 20,12 20,7.7c-0.2,-19.3 -0,-19.3 -0.2,-20.9c-0.1,-1 -0.1,-1.6 -9.8,-6.8Zm-10.4,170.8c0,-1.6 -0.7,-9.2 2.4,-7.7c5,2.6 36.5,14 36.8,14.1c1.7,0.9 0.7,34.2 0.4,34.5c-0.4,0.5 -1.7,0.5 -11.1,-2.9c-11.9,-4.2 -27.2,-8.4 -27.9,-9.2c-1.6,-1.7 -0.6,-2.1 -0.6,-29Zm36.6,-27.2c-2.8,-1.3 -5.8,-1.3 -5.5,-5.8c0.2,-2.5 -0.1,-32.7 0.1,-33.2c0.5,-1.5 1.2,-0.3 18.2,7.4c7.8,3.5 10.7,2.3 10.7,10.8c0,2.3 0,28.1 -0.1,29.1c-0.3,2 -1.7,1.6 -23.3,-8.3Zm-40.3,-56.4c3.6,2.5 22.7,10.6 23.2,11.6c1.3,2.3 1.1,2.4 0.6,33c-0.1,2.8 -0,4 -2.6,3c-1.6,-0.6 -12.5,-4.9 -19.9,-8.3c-4.8,-2.2 -3.6,-3.7 -3.5,-20.7c0,-17 -0.9,-18.8 2.2,-18.6Zm79.3,137.2c-11.9,-3.9 -14.8,-3.7 -14.9,-8.6c-0,-2.3 -0.2,-28.1 0.2,-28.7c1,-1.4 1.3,-0.3 6.6,1.7c20.1,7.7 20.4,7.1 21.9,8.2c2,1.4 1.7,1.9 1.4,29.8c-0,3.2 -4.6,0.9 -15.2,-2.4Zm-29.2,-130.5c-3,-1.6 -12.9,-6.4 -14,-6.9c-2.4,-1.2 -0.7,-22.8 -1.3,-32.2c-0.2,-3.2 3.4,-0.3 3.5,-0.2c12,6.4 12.6,5.1 24.5,11.7c1.4,0.8 1.2,1.2 0.6,20.6c-0.2,8.3 2.2,14.4 -3.3,11.9c-0.8,-0.4 -8.3,-3.9 -10.1,-4.8Zm-51.5,-31.1c0.7,-24.8 -0.7,-24.8 -0.1,-26.9c0.2,-0.6 0.6,-1.1 7.5,2.2c17.8,8.3 17.8,9.1 17.8,10.7c0,2.5 0.1,30 -0.1,30.9c-0.5,1.7 -1.6,1.2 -20.4,-8.3c-4.8,-2.4 -4.5,-3.1 -4.8,-8.6Zm73.7,94.7c-4,-2 -2.8,-4.2 -2.8,-9.7c0.1,-26.1 -0.4,-26.6 0.7,-26.9c0.8,-0.2 12.3,5.2 13.9,6.1c4.5,2.7 3.2,3.7 3.3,8.8c0,2.2 0.1,25.7 -0.3,26.9c-0.4,1.2 -1,0.8 -14.7,-5.3Zm7.8,-49.5c-3.2,-1.9 -9.8,-3.7 -10.5,-6.3c-0.3,-1.2 -0.2,-30.7 -0.1,-30.8c1.1,-2.1 17.1,7.3 17.5,8c0.5,0.7 0.2,29.6 0.1,30.9c-0.2,2.2 -4.7,-0.8 -7,-1.8Zm-99,-41.2c0.1,0.2 0.6,-0.2 0.7,0c0.4,0.5 0.3,3.7 0.3,4c-0,3.8 0.5,3.9 -1.2,7.2c-0.3,-0.4 -0.6,-0.8 -0.9,-1.2c2.1,-3.4 1,-3.7 1,-10.1Z" style="fill:#192f45;fill-opacity:0.99;"/><path d="M319.5,20.5c0.7,-0.4 0.6,-0.4 8.9,-5.1c24.6,-14.2 25.6,-16.9 26,-14.6c0,0.2 -20.2,36.6 -20.5,37.1c-1.5,-1.3 -1.9,-2.5 -3,-0.7c-1.1,1.9 -0.6,2.2 -2.2,3.6c-0.8,0.8 0.7,1.7 -6.8,12.4c-0.9,1.3 -0.2,1.5 -1.3,2.6c-0.9,0.9 -6.1,12 -8.1,12.9c-1.4,0.6 -1.7,5.1 -5.1,7.7c-2.7,2 -3,4 -5.1,8.2c-1.3,2.3 -17,26.8 -23.9,39.1c-3,4.8 -36.6,58.9 -36.4,60.1c0.3,2.4 55.8,-9.2 60.6,-10.2c15.3,-3.2 15.9,-3.7 16.9,-4.7c1.3,-1.2 1.2,-1.6 2.1,-1.5c0.2,0 5,0.7 2,-2c-0.2,-0.2 -0.7,0.2 -0.9,-0c20.9,-3 22.5,-4.5 22.3,-2.4c-0,0.4 -60.2,81.8 -65.4,88.9c-16.9,22.8 -16.5,23 -33.2,45.8c-5.3,7.3 -48.6,66.5 -65.2,91.9c-1.7,2 -1.7,1.9 -2.9,4c-6.1,10.3 -0.9,-6 8.2,-36.7c3,-9.2 34,-106 37.6,-115c1.2,-3 -15.6,5.7 -23.6,8.6c-44.7,16.3 -53.7,21.9 -54.4,19.4c-0.1,-0.3 11.1,-34.1 12.1,-37.1c0.6,0.3 0.8,1.1 1.4,1.4c0.9,0.5 0.5,-0.3 0.6,-1.3c0.2,-1.4 1.9,-3.3 2.1,-5.1c0.2,-1.6 0.4,-1.5 1,-3.1c1.5,-4.1 1.2,-4.1 3,-8c0.6,-1.4 1,-1 2,-2c0.9,-0.9 -1.2,-0.9 -0.8,-2.9c0.3,-1.5 0.1,-1.6 0.7,-2.2c2.7,-2.8 1.3,-3.6 3.4,-6.9c1.6,-2.6 20.5,-56.6 32.6,-89.1c8.6,-23 7.1,-26.8 15.6,-30.5c10.2,-4.4 81.2,-47.5 88.5,-52.8c1,-0.8 13.2,-7.4 12.7,-8.5c-0.3,-0.6 -1.2,-0.7 -1.5,-1.2Z" style="fill:#fdd204;fill-opacity:1;"/><path d="M414.2,51.7c0.1,0.4 0.8,0.5 0.9,1c0.9,3.1 -0,294.2 0.5,294.9c0.3,0.5 1,0.6 1.4,1l-0.5,1.3c-0.3,-0.1 -56.5,-7.7 -114.9,-6.7c-4,-2 -1.9,-3.4 -2.3,-29.6c-0,-1.5 0,-41.4 0,-57l1.7,-1l0,-1l0,-1l0,-1l-0,-1l0,-1l0,-1l-0,-1c-0.1,-6.8 1,-6.7 1,-7.3c-0,-0.4 -0.7,-0.5 -0.8,-0.9c0.3,-0.3 0.6,-0.7 1,-1c1.3,-0.8 1.2,-0.7 1.9,-2c0.8,-0.9 0.3,-1.1 1.1,-1.9c0.4,-0.6 0.8,-1.2 1.2,-1.9c1.2,-1.4 1.1,-1.3 2.1,-2.9c0.3,-0.5 1.6,-2 1.7,-2.2c0.4,-0.6 0.7,-1.3 1.1,-1.9c0.7,-0.9 1,-0.4 1.7,-1.2c0.2,-0.2 -0.1,-0.7 0.1,-0.9c0.4,-0.6 0.7,-1.3 1.1,-1.9l0.3,-0.8c1.4,-0.3 1.4,-0.3 1.5,-0.4c0.4,-0.4 -0.3,-0.6 0.1,-1c0.8,-0.9 46.6,-66.9 47.8,-68.5c3.5,-4.8 -4.2,-1.1 -33.5,3.6c-3.9,0.6 -3.6,-1 -3.6,-4.8c0,-38.5 -0.7,-39.4 2.3,-41.4c21.8,-14.3 22.1,-13.7 24,-15c3.3,-2.3 0.8,-28.8 1.7,-32.6c0.6,-2.4 4.2,-3.6 4.6,-3.6c3.9,0.4 -0.9,31.5 2.9,30.2c0,-0 39.5,-26.1 41.3,-27.4c6.6,-5 8.8,-3.2 10.5,-9.2Zm-38.2,204c0,-2.7 -0.6,-10.4 1.5,-11.2c1.9,-0.7 13.1,-5 24.1,-8c2.2,-0.6 1.6,1.1 1.8,25.2c0,2.1 -0.4,2.8 -24.7,10.1c-3.9,1.2 -2.4,-5.5 -2.6,-16.1Zm0.1,-141c0.7,-5.8 2.6,-4.6 7.6,-7.8c4.3,-2.7 8.9,-5.1 9.7,-5.5c8.5,-4.4 10.2,-6.6 10.1,-3.7c-0.7,20.2 -0.1,20.2 -0.2,22c-0.1,3.7 -20.6,12.2 -24.7,15.1c-3.7,2.6 -2.4,-1.6 -2.6,-20.1Zm-0.1,77c0.5,-16.5 -1.9,-18.4 4.4,-21.5c21.5,-10.5 23,-11.5 23.1,-9.5c0.1,1.9 0.7,18.8 -0.2,23.9c-0.3,1.7 -0.7,1.8 -19.8,8.9c-3.5,1.3 -7.6,5.6 -7.5,-1.8Z" style="fill:#12273d;fill-opacity:1;"/><path d="M654.2,234.3c0.6,0.1 0.7,1.1 1.3,1.2c0.3,0 -0.2,-1.1 3.1,-1.2c3.5,-0.1 4,1.9 5,2.3c0.4,0.2 0.9,-0.3 1.3,-0.1c2.9,10.2 -0.5,23.7 2,28.7c-0,0.5 -0.8,0.8 -0.9,1.4c-0,1.3 0.7,0.6 5.6,0.6c0.3,0 2.2,0 4,-1.2l1,0c0.3,0.2 -0.2,2.3 4,2.3c0.2,-0 2.9,-0 2.2,-1.7c-0.2,-0.4 -0.9,-0.5 -1.1,-0.9c0.8,-10 0.7,-10 0.4,-20.1c-0.3,-9.8 2.1,-10.7 2.4,-11.2c1.9,0.8 1.9,1 2,0.9c1.4,-1 1.3,-1.1 4.2,-0.9c3.2,-0.3 3.2,-0.2 3.4,-0.2c5.6,6.7 0.4,26.2 2.8,33.1l-0,1.4c2.4,0.8 9.3,1.4 10.8,1c0.8,2.5 2.8,40.5 -2.3,50.9c-9.6,19.8 -26.8,15.3 -28.2,18.9c-0.5,1.1 -7.2,59.8 -99.6,61.9c-60.1,1.4 -118.9,-16.7 -159.9,-22.2c-13.7,-1.8 -86.6,-15.5 -170,-6.1c-7.4,0.8 -35.3,6.6 -44.9,11.8c-0.1,0.1 -0.2,0.2 -0.3,0.3c-7.8,4.2 1.8,-6.4 3,-7.7c13.9,-14.6 14.2,-15.4 34.1,-18.3c7,-1 6.9,-1.1 14,-2l1,1.2l1,-0.1c5.6,-0.1 5.7,0 6,-0.3c0.5,-0.5 0.5,-1.4 1,-1.9c2.4,-0.2 30.6,-4 79,-1.1c0.5,0.5 0.6,1.2 1,1.7c0.8,0.8 12.9,0.5 14,0.5c4.5,2.1 5.4,1.1 11,0.9c1.2,-0 0.9,-0.5 2,-1c0.5,0.5 0.5,1.3 1,1.8c0.1,0.1 0.2,0.1 7,0.2c1.2,0 0.9,-0.5 2,-1c0.3,0.2 -0.2,2.3 4,2.2c1.5,-0 1.5,0 3,0l1,-1.2c0,0 0,2.8 6,2.2c2,-0.2 3.8,1.6 7,1.1c1.7,-0.2 1.6,0.8 20.9,3.4c8.2,1.1 8.4,1.2 9.1,1.5c1.2,0.5 1.3,-0.1 15.9,4.4c8.9,2.8 62.1,13.7 65.1,12c1,-0.6 1,-0.5 1.9,-1.1l1,-0.1c3,-0.5 2.9,-0.3 6,-0.3l1,0.1l1,0.5c0.6,0.1 5.2,0.9 8,-0.8c41.7,5.1 106.9,11 128.5,-40.3c0.1,-0.3 0.2,-0.2 1.5,-3.2c-4,-5.4 -18.1,-0.3 -25.1,-24c-1.8,-6.1 -1.3,-21.8 -1.3,-30c0,-9.4 -0.8,-16.9 5.3,-19.4c0.5,0.1 0.6,1 1.1,1c1.3,0.3 2.7,-0.1 4,-0c4.4,0 5.5,2.3 7.8,-1.6l-1.2,-1.1c0.1,-25.1 -0.3,-25.6 3,-29.3Zm36.4,49c0.8,0.3 2,-0.3 1.9,2.4c-0.7,20.9 0.6,26.5 -6.2,33.7c-4.6,3.8 -5,2.8 -10.8,4c-5.2,-0.1 -5.2,0.5 -10.1,-1.2c-14.4,-5.7 -12,-12 -12.1,-35.5c-0,-2.8 -1.3,-5.3 3.3,-5.2c7,0.2 6.9,0.7 14,0.8c10.1,0.2 10,0.8 20,1Zm-25.2,38.9c4.9,1.7 5,1.1 10.1,1.2c-0.5,0.5 -0.5,1.3 -1,1.8c-0,0 -3.4,0.1 -4,0.1c-1.6,-0 -1.4,-0.5 -2.8,-1.1c-0.2,-0.1 -0.2,-0 -2.2,-0.3c-0.1,-0.6 -0.1,-1.2 -0.2,-1.7Z" style="fill:#f8c602;fill-opacity:0.99;"/><path d="M417.6,10.8c11.6,5.6 74.4,37.8 80.9,41.1c10.7,5.5 13.7,8.2 16.4,8.8c0.2,49.4 -0.5,49.5 0.1,53.7c-0.6,0 -0.9,1 -1.4,1c-0.2,0 0,-0.3 -1.9,-1c-4.3,-1.7 -9.5,-4.7 -10,-5c2.5,-1.2 1.8,-1.8 1.8,-4.6c0,-13.2 0,-13.1 0,-14c-0,-0.6 0.4,-1.3 -9.1,-5.8c-33.4,-15.7 -48.2,-23.8 -64.8,-31.4c-3.7,-1.7 -2.6,1.5 -2.6,15.3c0,22.2 0.1,276.6 0,278c-0.2,5.2 -5.5,3.4 -10.6,3.3l0.5,-1.3c1.3,-4 0.6,-4.1 0.6,-12c-0.4,-299.8 0.3,-299.8 -0.1,-325.9Z" style="fill:#12263b;fill-opacity:0.99;"/><path d="M456.5,230.3c1.9,3.5 0.9,3.8 1,42.4c0.1,42.6 0.1,42.5 -0.1,85c-0,0.4 0.1,0.9 0.1,1c0.4,1.9 -0.9,2.2 -1,2.4c-6.2,-1.8 -6.2,-1.5 -9,-2.3c-4.2,-1.1 -3,-5.7 -3,-7.1c-0,-105 -0.2,-104.9 -0.1,-114c0.1,-5.8 2.6,-4.4 12,-7.4Z" style="fill:#051629;fill-opacity:0.99;"/><path d="M319.5,20.5c0.3,0.6 1.2,0.7 1.5,1.2c0.5,1.1 -11.6,7.8 -12.7,8.5c-7.3,5.3 -78.3,48.4 -88.5,52.8c-8.5,3.7 -7.1,7.5 -15.6,30.5c-12.1,32.5 -30.9,86.5 -32.6,89.1c-2.1,3.3 -0.7,4.1 -3.4,6.9c-0.6,0.6 -0.4,0.7 -0.7,2.2c-0.4,2 1.7,2 0.8,2.9c-1,1 -1.4,0.6 -2,2c-1.8,3.9 -1.5,3.9 -3,8c-0.6,1.5 -0.8,1.4 -1,3.1c-0.2,1.8 -1.9,3.7 -2.1,5.1c-0.1,1 0.3,1.8 -0.6,1.3c-0.6,-0.3 -0.8,-1.1 -1.4,-1.4c24.8,-76.4 48.9,-145.1 50.5,-147.9c1,-1.8 104.4,-60 110.9,-64.2Z" style="fill:#fded0a;fill-opacity:0.99;"/><path d="M302.3,84.5c0.2,0.6 1.3,0.6 1.5,1.3c0.1,0.3 -2,4.6 -2.2,5c-1,2 -1.9,2.2 -5.7,9.1c-0.3,0.6 -0.4,0.5 -0.9,1.1c-2.2,3.3 0.6,3.6 1.1,4c-3.3,7 -29.2,51.1 -31.8,55.5c-6.3,10.7 -10.6,16.6 -6.7,15.8c2.7,-0.6 2.7,-0.5 65.1,-11.1c0.2,0.2 0.7,-0.2 0.9,0c2.9,2.8 -1.8,2.1 -2,2c-0.9,-0.1 -0.8,0.2 -2.1,1.5c-1,1 -1.6,1.5 -16.9,4.7c-4.8,1 -60.3,12.6 -60.6,10.2c-0.2,-1.1 33.5,-55.3 36.4,-60.1c6.9,-12.3 22.6,-36.7 23.9,-39.1Z" style="fill:#fded46;fill-opacity:0.99;"/><path d="M415.7,6.9c-0.8,2.8 -1,3.8 1.9,3.9c0.4,26.1 -0.3,26 0.1,325.9c0,7.9 0.7,8 -0.6,12c-0.3,-0.5 -1,-0.6 -1.4,-1c-0.5,-0.7 0.4,-291.8 -0.5,-294.9c-0.1,-0.4 -0.8,-0.5 -0.9,-1c-0,-9.6 -0.2,-9.5 -0.2,-19c0.2,-23.6 -0.5,-24.1 1.6,-25.8Z" style="fill:#667994;fill-opacity:0.99;"/><path d="M501.7,109.3c0.5,0.4 5.7,3.3 10,5c1.9,0.8 1.7,1 1.9,1c0.6,-0 0.9,-1 1.4,-1c1.5,1.7 21,10.2 26.5,13.5c0.5,-0.1 1,-0.3 1.5,-0.4c-0.5,-18.1 -0,-18.5 1.4,-19c3.8,-1.1 3.9,2.8 3.9,3.2c0.6,17.9 -0.9,19 2.4,20.6c14.1,6.8 16,8.6 16.2,5.5c0.1,-2 -0.9,-9.2 3.5,-7.7c3.8,1.3 -0,11.4 3.3,13.2c2.7,1.5 10.3,4.2 12.9,7.4l-0.4,0.9c-0.9,1.6 -0.9,1.5 -1.5,3.3c-0.4,1.2 -0.8,0.7 -2.2,0.9c-0,-1.6 0.5,-2 -2.2,-3.7c0.1,-0.6 0.9,-0.9 0.9,-1.4c0,-0.1 -1.4,-1.2 -1.7,-1.3c-3.1,-1.2 -2.8,-2.5 -6,-1.9l-1,0.5c-0.5,-0.4 -3.4,-3 -7.1,-3.1c-3.6,-1.8 -10.8,-4.2 -15.9,-7.9c-1.1,-2 -0.9,-2.1 -3,-3.3c-1.4,-0.8 -1.9,0.4 -2,0.4c-0.6,-0.2 -0.4,-1.3 -0.9,-1.5l-1.1,-0.5l-1.2,0.9c-1.5,-0.7 -17.9,-8.4 -19,-9.1c-1.3,-0.7 -1.2,-0.9 -2.7,-0.7c-1.1,-1 -1.1,-0.8 -2.1,-1.7c-1,-0.8 -1,-0.5 -2,-1.2c-3.7,-4.8 -15.1,-7.6 -19.2,-9.5c-1.5,-0.7 -1.5,-0.7 -3,-0.1c-0.3,-0.2 -3.6,-2 -3.8,-3.2c-1,-6.2 9.1,0 12,1.7Z" style="fill:#273b52;fill-opacity:0.98;"/><path d="M387.6,359.1c81.5,10.1 89.1,16.1 135,22.1c0,0.6 0,1.2 0.1,1.8l-1,-0.5l-1,-0.1c-3.1,-0 -3,-0.2 -6,0.3l-1,0.1c-1,0.5 -0.9,0.5 -1.9,1.1c-3.1,1.8 -56.2,-9.2 -65.1,-12c-14.6,-4.6 -14.7,-3.9 -15.9,-4.4c-0.7,-0.3 -0.8,-0.4 -9.1,-1.5c-19.4,-2.6 -19.3,-3.7 -20.9,-3.4c-3.1,0.5 -5,-1.3 -7,-1.1c-6,0.6 -6,-2.2 -6,-2.2l-0.1,-0.1Z" style="fill:#fced5e;fill-opacity:0.99;"/><path d="M415.7,6.9c2,0.2 12.2,5.4 14,6.6c1.4,0.9 17.4,9 19,10c3.6,2.3 4,1.3 47,24c17.4,9.2 18.8,8.7 19.2,13.2c-2.8,-0.6 -5.7,-3.3 -16.4,-8.8c-6.5,-3.3 -69.3,-35.5 -80.9,-41.1c-2.9,-0.1 -2.8,-1.1 -1.9,-3.9Z" style="fill:#47586e;fill-opacity:0.99;"/><path d="M333.9,37.9c-32.3,57.9 -32,58 -37.8,67.1c-0.4,-0.4 -3.2,-0.7 -1.1,-4c0.4,-0.7 0.5,-0.5 0.9,-1.1c3.8,-6.9 4.7,-7.1 5.7,-9.1c0.2,-0.4 2.3,-4.7 2.2,-5c-0.2,-0.6 -1.3,-0.6 -1.5,-1.3c2.1,-4.2 2.4,-6.2 5.1,-8.2c3.5,-2.5 3.7,-7.1 5.1,-7.7c2.1,-0.9 7.2,-12 8.1,-12.9c1.1,-1 0.4,-1.3 1.3,-2.6c7.5,-10.7 6,-11.6 6.8,-12.4c1.6,-1.5 1.1,-1.8 2.2,-3.6c1,-1.7 1.5,-0.6 3,0.7Z" style="fill:#fce106;fill-opacity:0.99;"/><path d="M690.7,283.3c0.7,-0.5 1.3,-0.9 2,-1.4c3.4,1.4 2.6,2.6 2.6,22.8c-0,8 -2.3,10.9 -2.9,11.6c-4.1,5.2 -4.1,5.2 -4.4,5.4c-0.2,0.1 -0.1,-0.2 -1.5,-2.3c6.8,-7.2 5.5,-12.8 6.2,-33.7c0.1,-2.7 -1.1,-2.1 -1.9,-2.4Z" style="fill:#f3b501;fill-opacity:0.98;"/><path d="M301.4,240.5c0,0.4 0.7,0.5 0.8,0.9c0,0.6 -1,0.5 -1,7.3l0,1l-0,1l-0,1l0,1l-0,1l-0,1l-0,1l-1.7,1c-0,-10.8 -0.9,-11.8 2,-16.2Z" style="fill:#101f32;fill-opacity:0.98;"/><path d="M341.6,355.2c1.4,0 3.6,0 17,1c-0.6,0.4 -1.3,0.8 -1.9,1.2c-1.1,0 -13.2,0.3 -14,-0.5c-0.5,-0.5 -0.6,-1.2 -1,-1.7Z" style="fill:#fbf879;fill-opacity:0.99;"/><path d="M575.8,150.4c1.5,0.6 3.1,1.2 4.6,1.8c2.7,1.6 2.2,2.1 2.2,3.7c-5.8,0.1 -6.8,-2.6 -8,-3.8l1.2,-1.6Z" style="fill:#0b1722;fill-opacity:0.39;"/><path d="M358.6,356.2c2.6,0.2 2.5,0.1 5,0.3c0.5,0 0.4,0 5.9,0.6l0.1,0.1c-1.1,0.5 -0.8,1 -2,1c-5.5,0.2 -6.5,1.2 -11,-0.9c0.6,-0.4 1.3,-0.8 1.9,-1.2Z" style="fill:#fbf981;fill-opacity:0.99;"/><path d="M651.3,263.6l1.2,1.1c-2.3,3.9 -3.4,1.6 -7.8,1.6c-1.3,-0 -2.7,0.3 -4,0c-0.5,-0.1 -0.6,-1 -1.1,-1c3,-0.5 3,-0.6 7.1,-0.6c2.5,-0 2.6,0.3 4.6,-1.1Z" style="fill:#f5ed8e;fill-opacity:0.98;"/><path d="M328.6,178.7c-0.4,-0.3 -3.8,-2.8 -1,-6c1.2,-1.3 1.4,-0.8 3.2,-0.4c2.4,0.5 -0.4,1.9 -2.2,6.4Z" style="fill:#f9c700;fill-opacity:0.99;"/><path d="M654.2,234.3c6.4,-5 10.1,0.9 10.7,2.3c-0.4,-0.2 -0.9,0.3 -1.3,0.1c-1,-0.4 -1.5,-2.4 -5,-2.3c-3.2,0.1 -2.8,1.2 -3.1,1.2c-0.6,-0.1 -0.7,-1.1 -1.3,-1.2Z" style="fill:#fcf385;fill-opacity:0.99;"/><path d="M572.6,148.1l1,-0.5c3.2,-0.6 2.9,0.7 6,1.9c0.3,0.1 1.7,1.2 1.7,1.3c-0.1,0.6 -0.9,0.9 -0.9,1.4c-1.5,-0.6 -3.1,-1.2 -4.6,-1.8c-0.4,-0.2 -0.8,-0.4 -1.2,-0.6c-0.7,-0.6 -1.3,-1.1 -2,-1.7Z" style="fill:#112235;fill-opacity:0.99;"/><path d="M665.5,322.2c4.9,1.7 5,1.1 10.1,1.2c-0.5,0.5 -0.5,1.3 -1,1.8c-0,0 -3.4,0.1 -4,0.1c-1.6,-0 -1.4,-0.5 -2.8,-1.1c-0.2,-0.1 -0.2,-0 -2.2,-0.3c-0.1,-0.6 -0.1,-1.2 -0.2,-1.7Z" style="fill:#efe25c;fill-opacity:0.85;"/><path d="M696.9,267.3c5.6,1.4 7.9,-0.7 10.8,2.3c-1.5,0.4 -8.4,-0.2 -10.8,-1l0,-1.4Z" style="fill:#f9fb90;fill-opacity:0.98;"/><path d="M369.6,357.1c0.9,0.1 5.1,0.4 11,1l-0.9,0.1c-1,0.5 -0.8,1 -2,1c-6.9,-0.1 -6.9,-0 -7,-0.2c-0.5,-0.5 -0.5,-1.3 -1,-1.8l-0.1,-0.1Z" style="fill:#faf87a;fill-opacity:0.98;"/><path d="M262.6,356.2c-0.5,0.5 -0.5,1.4 -1,1.9c-0.3,0.3 -0.4,0.2 -6,0.3l-1,0.1l-1,-1.2c3,-0.3 6,-0.7 9,-1Z" style="fill:#f3e354;fill-opacity:0.89;"/><path d="M666.9,265.3c4.4,0.6 4.3,0.5 8.7,0.8c-1.8,1.2 -3.6,1.2 -4,1.2c-4.9,-0 -5.7,0.7 -5.6,-0.6c0,-0.5 0.8,-0.8 0.9,-1.4Z" style="fill:#eddc79;fill-opacity:0.82;"/><path d="M380.6,358.1c0.6,0.1 3.1,0.3 7,1l0.1,0.1l-1,1.2c-1.5,-0 -1.4,-0.1 -3,-0c-4.2,0.1 -3.7,-1.9 -4,-2.2l0.9,-0.1Z" style="fill:#e8e05d;fill-opacity:0.86;"/><path d="M676.6,266.1c1.7,-0.1 3.4,-0.2 5.1,-0.3c0.2,0.4 0.9,0.5 1.1,0.9c0.7,1.7 -2,1.7 -2.2,1.7c-4.2,0 -3.7,-2 -4,-2.3Z" style="fill:#efdd61;fill-opacity:0.87;"/><path d="M460.5,177.7c0.1,0.2 0.6,-0.2 0.7,0c0.4,0.5 0.3,3.7 0.3,4c-0,3.8 0.5,3.9 -1.2,7.2c-0.3,-0.4 -0.6,-0.8 -0.9,-1.2c2.1,-3.4 1,-3.7 1,-10.1Z" style="fill:#0a1729;fill-opacity:0.85;"/><path d="M522.6,381.1c2.7,0.4 5.3,0.7 8,1.1c-2.8,1.7 -7.3,0.9 -8,0.8c-0,-0.6 -0,-1.2 -0.1,-1.8Z" style="fill:#e5d965;fill-opacity:0.85;"/><path d="M687.6,232.5c2.7,0.1 3.1,-1 6.5,1.7c-0.3,0 -0.2,-0.1 -3.4,0.2c-1.9,-1 -1.9,-1 -2.1,-1.1c-0.7,-0.4 -0.4,-0.6 -1,-0.9Z" style="fill:#e4d998;fill-opacity:0.87;"/><path d="M687.6,232.5c0.7,0.4 0.4,0.6 1,0.9c0.2,0.1 0.2,0.1 2.1,1.1c-2.9,-0.1 -2.8,-0.1 -4.2,0.9c-0.1,0.1 -0.1,-0.1 -2,-0.9c1.4,-1.3 1.3,-1.3 3.1,-2.1Z" style="fill:#f2e387;fill-opacity:0.96;"/><path d="M460.5,177.7c0,6.4 1.1,6.6 -1,10.1c0.6,-9.3 0.2,-9.2 0.3,-10c0,-0.2 0.7,0.2 0.7,-0.1Z" style="fill:#0b1828;fill-opacity:0.71;"/><path d="M368.6,228.9c-1.8,-0.3 -2.2,-0.7 -1.3,-2.3c1.1,-1.8 1.1,0.1 1.3,2.3Z" style="fill:#11293f;fill-opacity:1;"/><path d="M304.3,237.5c-0.7,1.3 -0.7,1.3 -1.9,2c1,-1 0.9,-1 1.9,-2Z" style="fill:#212520;fill-opacity:0.65;"/><path d="M461,122.9c0.2,0.9 0.5,1.9 0.7,2.8c-0.6,-1.4 -0.8,-1.3 -0.7,-2.8Z" style="fill:#0c1827;fill-opacity:0.73;"/><path d="M519.8,123.3c1.5,-0.2 1.4,0 2.7,0.7c-1.4,-0.3 -1.3,-0.3 -2.7,-0.7Z" style="fill:#091723;fill-opacity:0.73;"/><path d="M314.4,222.6c-0.4,0.6 -0.7,1.3 -1.1,1.9c0.4,-1.1 0.4,-1 1.1,-1.9Z" style="fill:#28291f;fill-opacity:0.6;"/><path d="M316.3,220.5c-0.4,0.4 0.3,0.6 -0.1,1c-0.1,0.1 -0.1,0 -1.5,0.4c0.7,-0.8 0.6,-0.8 1.6,-1.3Z" style="fill:#1f2219;fill-opacity:0.62;"/><path d="M311.5,226.6c-0.4,0.6 -0.7,1.3 -1.1,1.9c0.4,-0.6 0.7,-1.3 1.1,-1.9Z" style="fill:#353328;fill-opacity:0.51;"/><path d="M638,271.4c0.3,-1.1 -0.6,-2 0.5,-1.6c1.1,0.4 -0.2,0.6 -0.5,1.6Z" style="fill:#f8b700;fill-opacity:1;"/><path d="M306.6,233.7c-0.4,0.6 -0.8,1.2 -1.2,1.9c0.4,-0.6 0.8,-1.2 1.2,-1.9Z" style="fill:#2f3229;fill-opacity:0.52;"/></g></g></g></svg>