<?xml version="1.0" encoding="UTF-8" standalone="no"?><!DOCTYPE svg PUBLIC "-//W3C//DTD SVG 1.1//EN" "http://www.w3.org/Graphics/SVG/1.1/DTD/svg11.dtd"><svg width="100%" height="100%" viewBox="0 0 860 588" version="1.1" xmlns="http://www.w3.org/2000/svg" xmlns:xlink="http://www.w3.org/1999/xlink" xml:space="preserve" xmlns:serif="http://www.serif.com/" style="fill-rule:evenodd;clip-rule:evenodd;stroke-linejoin:round;stroke-miterlimit:2;"><rect id="Mesa-de-trabajo1" serif:id="Mesa de trabajo1" x="0" y="0" width="859.325" height="587.308" style="fill:none;"/><clipPath id="_clip1"><rect x="0" y="0" width="859.325" height="587.308"/></clipPath><g clip-path="url(#_clip1)"><g id="Todo"><g id="Instalaciones.."><path d="M725.572,587.113c-19.899,-2.476 -13.964,-23.731 -6.708,-27.806c21.517,-12.086 33.817,26.701 6.708,27.806Zm1.149,-5.547c-15.661,-1.795 -6.037,-25.187 4.376,-17.632c2.925,2.122 7.747,15.072 -4.376,17.632Z" style="fill-opacity:0.98;"/><path d="M239.114,557.193c23.615,1.273 15.832,24.782 8.216,28.497c-20.409,9.955 -31.378,-25.335 -8.216,-28.497Zm2.299,24.373c-17.266,-1.784 -6.638,-24.568 3.306,-17.699c3.155,2.179 7.686,14.582 -3.306,17.699Z" style="fill-opacity:0.98;"/><path d="M758.167,557.234c1.143,0.084 9.901,-0.756 11.212,6.331c1.055,5.704 -4.275,7.429 -2.985,9.173c3.715,5.023 6.086,5.603 2.249,10.539c-4.143,5.33 -20.311,4.457 -20.762,2.263c-0.059,-0.285 -0.017,-21.36 -0.014,-23.217c0.014,-7.111 3.214,-5.059 10.299,-5.09Zm-4.227,21.376c0.129,-0.749 -0.115,-1.53 0.014,-2.279c1.046,-6.084 15.991,2.747 6.635,5.033c-4.343,1.062 -5.571,1.533 -6.649,-2.754Zm-0.015,-12.797c0.132,-1.722 -0.649,-2.194 1.012,-2.928c4.929,-2.178 12.402,3.951 5.549,6.414c-4.473,1.608 -5.608,1.175 -6.561,-3.486Z" style="fill-opacity:0.98;"/><path d="M499.813,557.265c1.21,0.016 12.068,0.156 14.812,3.038c1.315,1.381 4.838,8.111 -1.173,13.271c-5.485,4.708 9.873,13.493 2.678,13.384c-11.09,-0.168 -7.496,-12.012 -13.991,-10.672c-3.609,0.745 2.501,11.478 -5.831,10.549c-1.972,-0.22 -1.103,-1.33 -1.64,-25.677c-0.124,-5.611 3.582,-3.714 5.145,-3.894Zm5.787,5.485c0.634,0.131 9.046,1.872 3.25,7.407c-0.88,0.84 -7.904,2.896 -8.025,-0.839c-0.131,-4.026 -1.529,-6.586 4.775,-6.568Z" style="fill-opacity:0.98;"/><path d="M777.451,583.272c0.06,-19.391 -0.031,-23.684 0.235,-24.534c0.477,-1.52 7.723,-1.482 8.406,-1.478c17.858,0.093 15.04,12.149 9.458,16.91c-4.114,3.509 9.511,12.32 3.385,12.792c-8.791,0.678 -8.564,-9.729 -12.778,-10.882c-3.861,-1.056 -2.054,9.458 -3.623,10.546c-4.685,3.248 -5.054,-2.868 -5.083,-3.354Zm9.795,-20.53c0.675,0.109 9.26,1.496 5.101,6.863c-1.684,2.173 -8.642,3.137 -8.739,-0.286c-0.127,-4.517 -0.888,-6.015 3.638,-6.577Z" style="fill-opacity:0.98;"/><path d="M280.29,575.759c2.519,-2.648 1.033,-5.566 1.188,-15.768c0.004,-0.261 0.039,-2.568 1.825,-2.697c4.13,-0.299 4.174,0.953 4.035,5.032c-0.188,5.527 0.593,23.28 -0.637,24.234c-4.998,3.877 -10.55,-7.008 -16.368,-15.917c-5.883,-9.007 0.462,15.696 -4.415,16.221c-4.578,0.493 -4.21,-1.304 -4.194,-5.92c0.056,-16.916 -0.787,-23.434 1.774,-23.703c5.996,-0.63 8.05,4.665 16.793,18.518Z" style="fill-opacity:0.98;"/><path d="M675.362,568.425c-0.143,0.622 -1.487,0.381 -1.63,1.003c-0.269,1.17 0.57,1.163 0.486,15c-0.016,2.575 -1.442,2.539 -3.342,2.439c-3.891,-0.206 -2.799,-5.357 -2.786,-19.891c0.006,-6.585 -2.584,-9.844 3.977,-9.769c1.538,0.018 2.943,0.034 12.354,14.737c7.355,11.492 -0.262,-13.908 5.016,-14.681c5.358,-0.785 4.166,5.096 4.172,9.72c0.002,1.394 0.021,16.929 -0.007,17.431c-0.194,3.457 -5.336,3.417 -7.111,0.854c-10.606,-15.316 -10.193,-15.527 -11.129,-16.843Z" style="fill-opacity:0.98;"/><path d="M18.023,557.225c6.528,0.758 10.184,11.363 14.437,17.389c2.74,3.882 1.015,-14.249 1.465,-15.918c0.572,-2.124 4.622,-1.393 5.04,-1.009c1.222,1.122 1.119,28.031 -0.119,28.869c-2.773,1.876 -5.55,-1.602 -5.859,-1.989c-7.866,-9.853 -12.714,-23.304 -12.265,-11.773c0.374,9.604 1.146,14.405 -3.867,14.063c-2.147,-0.146 -2.632,-1.173 -1.894,-26.832c0.095,-3.313 2.875,-2.76 3.063,-2.799Z" style="fill-opacity:0.99;"/><path d="M580.112,557.177c5.014,0.73 4.185,3.544 9.858,17.737c2.728,6.824 7.251,13.665 -0.572,11.959c-3.504,-0.765 -2.022,-7.116 -5.789,-7.205c-6.816,-0.162 -8.673,-1.836 -11.008,4.607c-0.823,2.271 -1.858,2.825 -5.323,2.72c-4.151,-0.127 -1.008,-2.558 7.317,-24.557c1.505,-3.977 1.201,-4.95 5.515,-5.26Zm-0.857,7.861c2.18,0.036 1.616,0.908 2.237,3.011c0.771,2.613 4.702,6.864 -3.668,6.684c-0.784,-0.017 -2.358,-0.6 1.43,-9.695Z" style="fill-opacity:0.98;"/><path d="M819.843,557.256c3.985,0.675 3.331,1.832 7.662,12.265c6.68,16.093 6.535,16.876 5.152,17.289c-7.328,2.188 -5.593,-7.138 -10.482,-7.243c-0.726,-0.016 -8.122,-0.174 -8.937,1.575c-2.036,4.368 -1.4,5.945 -6.227,5.87c-2.259,-0.035 -2.415,-1.837 7.949,-27.104c1.386,-3.378 4.451,-2.583 4.883,-2.651Zm-1.165,17.404c-1.772,-0.57 -2.745,0.016 -2.412,-1.872c0.102,-0.58 1.064,-6.041 2.424,-6.947c0.522,-0.348 1.753,-0.783 3.668,6.932c0.549,2.21 -0.886,1.34 -3.68,1.887Z" style="fill-opacity:0.98;"/><path d="M165.83,557.248c4.553,0.519 4.176,2.63 9.645,16.58c2.922,7.454 6.256,13.273 1.988,13.095c-6.779,-0.283 -3.125,-7.342 -9.308,-7.382c-0.672,-0.004 -7.742,-0.05 -8.295,1.313c-2.001,4.936 -1.518,6.805 -6.883,6.08c-2.145,-0.29 -1.535,-1.739 8.066,-25.824c1.263,-3.169 1.306,-3.648 4.786,-3.863Zm0.748,8.847c1.923,6.126 3.284,9.78 -2.976,8.51c-1.839,-0.373 0.054,-5.09 0.896,-7.74c0.253,-0.795 0.301,-0.813 0.37,-0.838c0.902,-0.334 0.864,0.382 1.711,0.068Z" style="fill-opacity:0.98;"/><path d="M109.966,557.226c5.555,0.76 4.901,6.599 13.285,25.853c1.614,3.706 -0.1,4.483 -3.946,3.551c-3.229,-0.783 -1.931,-6.762 -5.834,-7.015c-6.79,-0.441 -8.39,-1.648 -10.874,4.657c-1.666,4.229 -7.547,3.268 -6.441,0.21c1.642,-4.54 3.836,-9.433 9.079,-23.349c1.548,-4.108 2.269,-3.638 4.73,-3.906Zm-0.014,17.398c-2.686,-0.661 -3.708,-0.06 -3.299,-1.79c1.66,-7.02 2.671,-6.765 3.181,-6.493c1.792,0.957 2.772,5.857 2.882,6.409c0.412,2.063 -0.707,1.435 -2.764,1.874Z" style="fill-opacity:0.98;"/><path d="M647.611,557.269c5.385,0.001 13.217,-1.22 13.25,2.724c0.046,5.46 -12.762,0.453 -12.861,4.684c-0.15,6.379 2.54,5.047 8.913,5.076c4.36,0.02 2.925,5.19 1.146,5.231c-7.239,0.163 -11.587,-2.35 -10.008,4.718c0.806,3.608 13.134,-0.975 12.797,4.768c-0.013,0.23 -0.137,2.33 -1.58,2.407c-16.845,0.888 -17.235,0.146 -17.67,-1.202c-0,-0.001 -0.708,-26.576 0.423,-27.773c0.975,-1.032 1.174,-0.516 5.59,-0.633Z" style="fill-opacity:0.98;"/><path d="M305.469,557.284c7.453,0.195 8.72,-1.317 9.312,1.549c0.803,3.887 -3.075,3.883 -3.492,3.882c-6.572,-0.006 -9.364,-1.136 -8.968,5.376c0.172,2.823 11.055,0.194 11.5,3.516c0.699,5.218 -11.022,2.181 -11.495,4.756c-1.316,7.168 2.778,4.894 10.117,5.041c4.411,0.089 2.71,4.602 2.123,5.048c-1.193,0.906 -17.176,0.423 -17.266,0.401c-2.975,-0.725 -1.375,-28.722 -1.025,-29.057c1.04,-0.994 1.249,-0.464 9.193,-0.513Z" style="fill-opacity:0.98;"/><path d="M417.201,557.279c8.696,-0.007 15.511,-1.109 15.584,2.705c0.103,5.411 -12.744,0.475 -12.91,4.704c-0.224,5.731 2.007,4.952 7.778,4.996c6.041,0.046 4.282,5.38 1.169,5.316c-7.374,-0.151 -7.796,-0.97 -8.729,0.504c-0.224,0.354 -1.294,5.809 1.684,5.923c8.395,0.322 11.387,-2.48 11.293,3.002c-0.024,1.38 -0.064,3.754 -17.064,2.555c-3.623,-0.255 -2.32,-4.717 -2.499,-24.658c-0.034,-3.826 -0.157,-4.892 3.695,-5.048Z" style="fill-opacity:0.98;"/><path d="M368.316,557.271c4.779,0.01 13.711,-1.276 13.653,2.721c-0.073,5.068 -12.386,0.783 -12.723,4.634c-0.595,6.789 2.754,4.979 9.526,5.026c2.886,0.02 2.8,5.414 0.009,5.409c-7.03,-0.012 -11.28,-2.04 -9.51,4.775c0.903,3.476 13.593,-1.188 13.183,4.612c-0.034,0.482 0.01,2.419 -2.492,2.479c-13.865,0.331 -16.735,0.204 -16.788,-2.451c-0.035,-1.772 0.025,-1.754 -0.012,-22.153c-0.01,-5.602 1.899,-4.696 5.154,-5.051Z" style="fill-opacity:0.98;"/><path d="M332.239,557.186c12.989,0.675 7.858,6.61 7.086,6.736c-0.657,0.107 -9.367,-2.868 -10.873,0.582c-2.423,5.55 19.195,4.424 13.193,17.653c-3.491,7.695 -21.944,5.866 -19.37,-1.121c1.14,-3.095 13.94,4.28 13.714,-2.43c-0.174,-5.162 -18.981,-3.678 -13.365,-16.427c2.406,-5.463 8.633,-4.915 9.616,-4.994Z" style="fill-opacity:0.98;"/><path d="M57.591,557.235c3.103,0.278 8.164,-0.004 8.42,3.911c0.427,6.542 -8.084,-0.67 -11.512,2.734c-4.246,4.217 10.435,6.287 12.41,10.078c7.018,13.472 -17.835,16.846 -19.328,9.222c-1.521,-7.769 6.094,0.696 12.313,-2.285c7.996,-3.833 -9.619,-6.185 -11.89,-11.457c-4.559,-10.583 8.353,-12.062 9.586,-12.203Z" style="fill-opacity:0.98;"/><path d="M602.085,585.947c-1.543,-1.232 -2.01,-0.856 -2.319,-2.656c-1.341,-7.815 8.444,1.331 12.68,-2.613c5.395,-5.024 -10.485,-5.81 -12.478,-11.4c-4.617,-12.951 17.733,-15.44 18.295,-8.103c0.499,6.517 -4.208,-0.143 -10.364,1.936c-7.227,2.441 4.053,6.376 4.663,6.589c11.783,4.111 11.89,21.171 -10.477,16.247Z" style="fill-opacity:0.98;"/><path d="M856.874,584.228c-7.015,5.045 -18.611,3.841 -18.048,-3.24c0.263,-3.307 13.947,4.214 14.12,-2.348c0.117,-4.426 -18.669,-4.419 -13.401,-16.352c3.428,-7.767 21.513,-5.959 17.749,1.389c-0.606,1.182 -12.754,-3.766 -12.084,2.168c0.432,3.826 21.967,4.845 11.665,18.384Z" style="fill-opacity:0.98;"/><path d="M552.177,557.2c0.68,0.061 7.237,0.655 8.042,2.842c1.265,3.438 0.066,4.733 -3.367,3.402c-16.054,-6.221 -19.562,23.648 1.041,17.132c4.754,-1.503 3.565,4.458 -0.068,5.642c-21.954,7.154 -30.774,-27.009 -5.647,-29.018Z" style="fill-opacity:0.98;"/><path d="M453.279,557.24c0.771,0.108 9.512,1.329 7.552,6.137c-1.037,2.543 -12.131,-4.92 -15.982,4.651c-2.447,6.081 0.628,16.713 12.953,12.53c0.369,-0.125 4.941,-1.677 2.749,4.013c-1.85,4.802 -25.747,4.424 -22.746,-15.327c1.727,-11.362 13.909,-11.93 15.474,-12.003Z" style="fill-opacity:0.98;"/><path d="M197.236,557.196c1.655,0.115 7.764,-0.242 8.467,3.918c0.618,3.655 -1.283,3.045 -4.897,2.102c-8.826,-2.304 -13.678,5.941 -11.568,11.863c3.34,9.373 12.08,5.872 14.964,5.283c2.67,-0.545 2.932,4.731 -1.271,5.99c-21.723,6.505 -29.787,-26.756 -5.695,-29.156Z" style="fill-opacity:0.98;"/><path d="M470.721,557.299c11.284,-0.034 19.96,-1.473 18.612,3.86c-0.818,3.234 -8.706,-0.808 -8.811,4.661c-0.027,1.387 -0,16.063 0.002,17.459c0.012,6.346 -6.507,4.164 -6.558,1.171c-0.33,-19.369 1.47,-21.227 -2.109,-21.659c-1.055,-0.127 -7.724,1.501 -6.429,-3.822c0.573,-2.356 1.531,-1.289 5.293,-1.671Z" style="fill-opacity:0.98;"/><path d="M89.015,557.293c0.495,0.017 5.625,0.191 6.008,1.474c1.528,5.118 -1.818,3.432 -7.123,3.985c-1.994,0.208 -1.896,6.002 -1.887,6.547c0.254,15.037 0.802,17.653 -3.987,17.583c-3.242,-0.047 -2.263,-7.027 -2.179,-21.069c0.039,-6.498 -9.625,0.537 -8.848,-5.863c0.449,-3.699 6.189,-2.658 18.016,-2.657Z" style="fill-opacity:0.98;"/><path d="M392.76,557.269c1.793,0.472 2.8,0.142 2.804,3.887c0.016,13.544 -0.704,20.151 1.761,20.268c8.005,0.38 10.885,-2.283 10.762,3.017c-0.052,2.251 -0.847,2.863 -16.521,2.562c-3.471,-0.067 -1.831,-2.109 -2.354,-25.842c-0.072,-3.263 0.367,-3.714 3.547,-3.892Z" style="fill-opacity:0.98;"/><path d="M133.246,557.25c4.418,0.958 2.37,2.943 2.988,21.384c0.199,5.924 14.284,-0.79 12.155,6.973c-0.347,1.265 -0.74,1.694 -16.335,1.388c-2.931,-0.058 -2.085,-1.769 -2.253,-26.998c-0.022,-3.34 2.029,-2.608 3.445,-2.747Z" style="fill-opacity:0.98;"/><path d="M4.068,557.264c0.284,0.058 2.952,-0.484 3.028,2.752c0.604,25.679 0.274,26.532 -1.858,26.809c-6.699,0.87 -4.602,-2.703 -4.547,-9.373c0.145,-17.507 -1.284,-19.667 3.377,-20.188Z" style="fill-opacity:0.98;"/><path d="M217.035,557.239c0.817,0.191 2.771,-0.556 2.802,2.738c0.229,24.811 1.027,25.24 -0.672,26.51c-0.476,0.356 -4.932,1.242 -5.495,-0.934c-0.054,-0.208 -0.602,-26.819 0.119,-27.646c1.043,-1.196 1.253,-0.537 3.246,-0.669Z" style="fill-opacity:0.98;"/><path d="M527.742,557.242c3.986,0.84 3.032,2.124 3.004,6.242c-0.045,6.448 -0.007,6.431 -0.015,6.99c-0.208,13.857 1.423,16.815 -4.174,16.508c-2.941,-0.161 -1.979,-5.456 -1.97,-15.35c0.009,-10.538 -1.693,-13.847 3.155,-14.391Z" style="fill-opacity:0.98;"/></g><g id="Electro-Obra"><path d="M706.704,433.473c2.781,1.302 2.825,1.322 38.367,1.136c0,0 3.71,-0.21 4.033,-0.228c2.502,0.781 2.384,1.068 5.015,1.265c9.959,3.703 10.152,4.761 10.253,4.771c0.411,0.04 0.518,-0.86 0.929,-0.821c12.96,12.683 10.907,36.708 -4.322,44.097c-3.17,1.538 -5.32,1.563 -3.16,4.341c2.368,3.045 16.267,28.381 17.008,29.957c2.86,6.088 3.364,-1.417 11.371,-27.083c1.686,-5.403 14.52,-49.966 17.721,-57.174c6.362,2.17 10.539,-0.075 30.418,1.056c6.277,22.655 25.755,86.976 25.319,87.87c-0.56,1.149 -21.837,0.954 -22.624,0.243c-1.817,-1.642 -3.672,-18.285 -6.875,-18.474c-2.126,-0.126 -25.716,-1.521 -26.614,0.7c-1.34,3.31 -4.029,17.793 -6.374,18.121c-2.227,0.311 -19.532,0.023 -36.1,0.159c-4.727,0.039 -6.503,2.124 -10.476,-5.301c-14.521,-27.134 -13.822,-28.255 -16.433,-28.667c-9.023,-1.427 -6.368,3.287 -6.587,7.416c-0.926,17.47 1.829,26.407 -2.488,26.473c-17.704,0.271 -17.953,0.623 -18.958,-0.514c-0.166,-0.188 -1.069,-86.185 0.58,-89.342Zm41.023,36.949c-1.362,0.802 -6.813,4.009 -19.615,2.368c-1.496,-4.152 -0.76,-22.744 -0.146,-23.047c0.209,-0.103 12.403,-1.281 16.99,0.416c7.248,2.681 7.958,15.492 2.771,20.263Zm61.3,17.491c-0.189,-1.72 -0.315,-2.863 5.249,-20.988c2.355,-7.67 3.166,-16.969 4.783,-9.062c2.283,11.161 3.322,10.842 7.567,29.709c-1.983,0.987 -16.192,0.399 -17.599,0.34Z" style="fill:#fcc800;fill-opacity:0.99;"/><path d="M555.897,434.504c0.456,0.2 0.712,0.731 1.168,0.931c0.503,0.221 1.849,-0.747 2.911,-0.89c1.663,-0.224 1.416,-0.906 3.021,-0.913c2.172,-0.009 1.938,-1.294 4.038,-0.963c1.149,0.181 20.776,-1.769 28.225,3.695c0.996,0.731 1.276,0.15 2.09,1.024c0.766,0.822 1.1,-0.677 2.023,0.007c0.277,0.205 -0.067,0.427 2.869,3.221c6.77,6.441 5.698,9.751 6.822,9.206c0.48,-0.233 0.721,-0.824 1.201,-1.057c1.783,4.356 3.267,8.339 3.382,19.1c0.297,27.835 -0.75,28.301 -1.095,30.076c-0.682,3.504 -5.279,27.147 -35.485,27.06c-29.245,-0.084 -37.299,-14.582 -38.324,-37.127c-1.974,-43.425 8.162,-48.57 17.154,-53.368Zm12.475,70.875c-8.052,-6.211 -5.391,-17.871 -5.857,-41.514c-0.37,-18.787 18.434,-18.722 24.396,-10.891c5.464,7.177 3.125,43.753 1.554,47.056c-1.449,3.045 -1.32,3.042 -3.697,5.4c-4.8,2.183 -4.896,1.745 -9.68,1.946c-3.492,-0.718 -3.41,-0.817 -6.715,-1.997Zm0,-0c3.306,1.18 3.223,1.278 6.715,1.997l-0.962,1.051c-1.873,0.179 -1.86,0.195 -2.022,0.193c-2.604,-0.025 -4.694,-2.115 -4.694,-2.181c0.002,-0.477 0.961,-0.582 0.963,-1.059Z" style="fill:#fdcc00;fill-opacity:1;"/><path d="M480.847,472.864c-0.001,28.708 1.859,53.551 -43.751,51.525c-5.115,-0.227 -13.396,-2.254 -18.839,-5.825c-8.473,-5.559 -10.297,-14.732 -10.574,-15.623l1.661,-1.078l-0.277,-1l-0.276,-1c-1.157,-51.736 1.464,-52.229 8.199,-59.088c2.33,-2.373 8.534,-5.221 10.219,-5.505c1.594,-0.269 1.321,-1.151 2.951,-0.963c1.984,0.229 4.663,-1.886 16.927,-0.934c19.724,1.532 19.899,4.846 27.21,13.337c2.219,2.577 3.02,7.824 3.113,8.055c1.268,3.161 2.085,16.836 2.162,17.098c0.152,0.519 1.123,0.483 1.275,1.002Zm-22.227,-14.9c0.549,2.821 1.686,8.665 0.782,35.912c-0.419,12.639 -11.984,13.991 -18.336,12.982c-11.44,-1.818 -10.909,-9.55 -11.511,-13.016c-0.009,-1.439 -0.05,-7.98 0.019,-17.982c-0.01,-8.713 -2.982,-26.413 12.458,-27.334c15.265,-0.91 16.274,8.536 16.589,9.438Z" style="fill:#0f2439;fill-opacity:1;"/><path d="M626.668,433.386c4.844,2.403 5.057,1.139 14.397,1.177c15.087,0.061 15.009,0.201 28.013,-0.021c1.012,-0.017 2.046,-0.203 3.036,0.009c0.437,0.094 0.597,0.742 1.028,0.861c2.547,0.702 2.755,-0.184 5.025,1.133c1.037,0.602 1.101,-0.653 2.106,-0.154c0.469,0.232 0.413,1.052 0.869,1.308c0.327,0.184 0.772,-0.364 1.108,-0.198c1.391,0.688 0.498,1.653 1.966,2.133c0.048,0.016 1.328,-0.594 2.134,0.839c0.154,0.275 -0.136,0.744 0.112,0.939c0.274,0.217 0.804,-0.273 1.048,-0.023c0.25,0.256 -0.194,0.758 -0.025,1.073c1.517,2.824 2.368,0.931 2.974,1.169c5.451,9.192 3.675,24.851 -7.178,29.679c-4.009,1.784 -0.348,2.597 0.978,3.051c0.081,1.374 -0.265,1.621 0.945,2.242c5.507,2.825 4.757,3.679 5.227,3.908c0.42,0.204 0.594,-1.171 1.014,-0.967c8.53,10.456 9.135,36.439 -17.338,41.568c-3.034,0.588 -47.141,0.161 -47.184,0.153c-1.426,-0.276 -1.171,-0.905 -1.173,-26.4c-0.005,-62.001 0.147,-62.07 0.918,-63.481Zm20.907,71.521c-0.018,-20.438 -0.959,-22.352 2.481,-22.366c15.996,-0.067 23.95,-1.543 24.573,13.283c0.316,7.525 -7.463,10.083 -8.484,10.419c-3.412,0.327 -3.325,0.692 -13.079,0.747c-3.389,0.019 -4.391,1.121 -5.49,-2.083Zm-0.118,-39.055c0.028,-14.582 -0.329,-17.309 1.512,-17.416c4.148,-0.24 24.743,-2.75 21.136,12.435c-0.693,2.919 -1.08,2.684 -3.19,4.745c-1.308,0.615 -8.517,4.004 -17.893,2.543c-1.593,-0.248 -1.101,-0.818 -1.565,-2.308Z" style="fill:#fdca00;fill-opacity:0.99;"/><path d="M395.257,468.896c-0.394,1.762 -0.226,4.66 -4.627,10.625c-4.003,5.425 -8.356,3.36 -8.699,8.406l-0.866,-0.214c-0.049,0.055 -1.501,-0.48 -1.028,1.155c0.166,0.572 6.184,10.287 6.734,11.175c0.686,1.108 6.656,11.827 7.23,12.858c1.121,2.013 1.088,1.938 2.195,3.881c0.396,0.695 0.72,0.218 1.175,0.881c0.144,0.209 -0.434,0.387 0.997,3.008c0.123,0.226 0.136,0.196 1.837,2.644c-20.551,0.307 -20.73,0.612 -22.103,-0.503c-3.459,-2.809 -15.925,-32.64 -18.944,-33.327c-0.973,-0.221 -0.901,-0.097 -6.087,0.384l-1.007,-0.616l-0.997,-0.391c-1.005,3.866 -0.581,9.301 -0.486,20c-0.075,10.717 -0.129,10.634 -0.5,14.464c-1.36,0.018 -1.324,-0.04 -17.006,0.061c-0.866,-2.225 -0.956,-2.125 -0.986,-4.525c-0.081,-6.636 -0.575,-46.929 0.018,-82.96c0.008,-0.486 0.322,-0.961 33.952,-0.85c24.948,0.082 25.891,11.959 27.775,24.811l0.052,1l0.011,1l0.034,1l0.016,1c-0.016,0.059 -0.481,0.813 -0.548,2.024c-0.148,2.695 1.836,2.986 1.857,3.009Zm-42.713,-8.035c0.01,-5.764 -1.031,-11.399 2.497,-11.453c15.273,-0.236 19.907,-0.814 20.56,14.436c-1.493,11.651 -7.465,11.314 -20.538,11.314c-3.521,0 -2.428,-4.168 -2.519,-14.297Z" style="fill:#0f2439;fill-opacity:1;"/><path d="M0.827,433.653c3.644,1.944 3.864,1.311 18.238,1.378c24.218,0.113 31.28,-0.061 33.999,-0.128c3.448,-0.085 3.484,0.94 3.561,0.968c0.013,2.013 0.438,12.261 -0.457,13.113c-0.472,0.45 -1.93,0.433 -2.102,0.431c-2.407,-0.028 -24.752,-0.289 -30.089,0.047c-2.105,0.133 -1.483,7.684 -1.345,16.516c-1.649,2.529 -1.048,2.888 -0.56,2.876c2.142,-0.052 28.879,0.328 29.696,0.039c-0.003,3.103 0.273,13.25 -0.593,14.089c-1.042,1.01 -1.184,0.424 -7.114,0.355c-1.609,-0.019 -18.377,-0.215 -20.117,0.109c-2.557,0.476 -1.295,19.519 -0.846,21.37c-1.408,0.194 -1.981,-0.361 -2.124,1.051c-0.302,2.995 31.02,0.248 36.092,1.642l0.658,0.352c-0.037,8.268 0.204,14.368 -0.57,15.108c-0.593,0.567 -8.045,0.436 -9.087,0.436c-42.44,-0.002 -42.454,0.464 -46.097,-0.11c-1.968,-0.31 -1.617,-4.268 -1.591,-16.429c0.139,-67.118 -0.347,-70.966 0.45,-73.212Z" style="fill:#091c30;fill-opacity:0.99;"/><path d="M182.318,433.659c0.37,1.073 0.818,2.369 0.509,14.18c-0.084,3.211 -24.823,0.852 -31.83,1.571c-2.536,0.26 -1.716,6.357 -1.744,15.458c-0.65,0.728 -0.928,0.203 -1.634,0.993c-0.054,0.06 -0.077,0.086 -0.148,1.002c-0.21,2.718 6.261,2.157 10.594,2.169c18.606,0.052 18.87,-0.614 19.999,0.644l0.766,0.187c-0.032,11.034 0.035,11.005 -0.102,11.951c-0.347,2.398 -8.059,1.514 -25.671,1.512c-5.555,-0 -3.676,2.48 -3.719,4.538l-1.757,0.997l-0.052,1l-0.019,1l0.007,1l-0.019,1l0,1c-0.522,11.851 -0.263,13.359 3.551,13.318c30.336,-0.328 30.791,-0.174 33.314,0.685c0.041,9.367 0.682,14.938 -1.359,15.525c-0.376,0.108 -9.148,0.028 -9.943,0.02c-43.108,-0.395 -45.616,1.319 -45.542,-2.562c0.14,-7.271 -0.04,-78.625 0.097,-86.033c6.496,0.382 52.573,0.328 53.447,0.044c0.55,-0.179 0.702,-1.023 1.253,-1.201Z" style="fill:#0b1f33;fill-opacity:1;"/><path d="M249.988,437.863c0.132,4.853 1.666,15.098 -1.984,14.221c-0.642,-0.154 -0.485,-0.634 -7.895,-2.416c-0.142,-0.034 -12.755,-1.007 -16.962,-0.355c-5.932,0.92 -8.615,7.659 -8.983,8.582c-0.366,-0.627 -0.733,-1.254 -1.099,-1.88l-0.57,0.848l-0.195,1l-0.435,1l-0.266,1c-0.008,0.502 -0.082,0.403 -0.092,1c-0.009,0.56 -0.005,0.519 -0.064,7l0.005,1l0.028,1l0.01,1l-0.008,1l0.123,1l1.877,1.005c-0.016,9.497 -0.036,9.398 0.067,18.98l-1.752,1.015l0.047,1c0.348,1.082 -0.811,16.974 24.152,13.504c3.199,-0.445 11.722,-2.619 11.976,-2.754c0.745,-0.397 1.176,-1.252 1.92,-1.649c0.278,1.991 1.077,16.225 -0.755,16.997c-4.597,1.939 -49.496,13.956 -57.372,-20.032c-1.506,-6.498 -1.422,-21.57 -1.238,-35.054c0.496,-0.491 1.336,-0.522 1.832,-1.013c0.342,-0.339 0.271,-0.404 0.5,-6l0.154,-1l0.058,-1.323c0.351,-0.928 2.356,-11.027 9.134,-16.499c1.249,-1.008 1.363,-0.707 2.625,-1.581c9.98,-6.911 27.48,-5.378 34.292,-3.858c5.55,1.239 5.29,1.937 10.873,3.261Z" style="fill:#0c2135;fill-opacity:1;"/><path d="M258.704,433.513c0.569,0.371 0.791,1.147 1.36,1.518c0.192,0.125 59.649,-0.086 59.926,0.056c0.556,0.286 0.533,5.298 0.531,5.761c-0.001,0.165 -0.031,0.149 -0.412,2.015l-0.007,1l0.047,1l0.03,1l0.028,1l0.054,1c-0.073,0.513 -0.146,1.026 -0.219,1.539c-4.47,-0.052 -18.024,0.02 -18.046,0.021c-2.584,0.097 -1.368,1.834 -1.739,71.444c-0.019,3.479 -4.096,2.547 -5.193,2.538c-13.809,-0.109 -17.101,0.457 -17.154,-1.519c-0.945,-35.56 1.532,-35.502 0.308,-71.042c-0.106,-3.085 -16.331,-0.652 -19.307,-1.641c-1.637,-0.544 -1.287,-13.316 -0.206,-15.689Z" style="fill:#10253b;fill-opacity:1;"/><path d="M67.743,433.584c0.652,0.128 0.697,1.339 1.349,1.466c2.538,0.498 14.406,-1.168 20.366,0.815c-0.011,22.327 -0.021,44.655 -0.032,66.982c-0.151,0.272 0.205,0.659 0.054,0.931c-0.258,0.465 -0.883,0.635 -1.17,1.083c-1.977,3.085 8.482,2.28 18.755,2.299c5.833,0.011 13.346,-0.818 13.544,1.709c-0.161,12.922 0.358,13.156 -0.524,14.012c-1.667,1.617 -2.093,0.495 -29.021,0.525c-23.014,0.025 -23.008,-0.417 -23.061,-0.467c-1.158,-1.109 -0.885,-87.492 -0.26,-89.356Z" style="fill:#0a1e32;fill-opacity:0.99;"/><path d="M493.332,490.461c-1.144,-2.491 -1.646,-18.278 0.653,-18.892c0.583,-0.156 31.36,-0.137 32.163,0.005c2.165,0.383 2.607,18.917 -0.104,19.033c-14.931,0.636 -30.098,-0.031 -32.712,-0.145Z" style="fill:#172c41;fill-opacity:0.99;"/><path d="M395.257,468.896c-0.022,-0.023 -2.005,-0.315 -1.857,-3.009c0.066,-1.212 0.532,-1.966 0.548,-2.024l-0.016,-1l-0.034,-1l-0.011,-1l-0.052,-1c-1.884,-12.852 -2.827,-24.728 -27.775,-24.811c-33.63,-0.111 -33.944,0.364 -33.952,0.85c-0.592,36.031 -0.099,76.324 -0.018,82.96c0.029,2.401 0.12,2.3 0.986,4.525c-0.174,-0.039 -2.755,0.379 -2.783,-2.536c-0.066,-6.944 -0.81,-84.911 0.232,-86.809c0.54,-0.983 0.853,-1.168 29.54,-1.085c23.361,0.067 37.735,2.063 35.192,35.94Z" style="fill:#6b7d94;fill-opacity:0.99;"/><path d="M480.847,472.864c-0.152,-0.519 -1.123,-0.483 -1.275,-1.002c-0.077,-0.262 -0.894,-13.937 -2.162,-17.098c-0.093,-0.232 -0.894,-5.479 -3.113,-8.055c-7.311,-8.491 -7.487,-11.805 -27.21,-13.337c-12.264,-0.953 -14.943,1.162 -16.927,0.934c-1.63,-0.188 -1.357,0.694 -2.951,0.963c-1.685,0.284 -7.889,3.132 -10.219,5.505c-6.735,6.859 -9.356,7.352 -8.199,59.088l0.276,1l0.277,1l-1.661,1.078c-0.445,-2.154 -4.85,-41.733 2.678,-56.933c10.249,-20.696 53.516,-18.697 64.248,-2.811c6.704,9.924 6.071,20.015 6.238,29.668Z" style="fill:#606f85;fill-opacity:0.99;"/><path d="M458.62,457.964l1.033,-1.101c0.457,0.055 0.009,-0.561 0.412,-0.512c0.074,0.009 0.524,0.063 0.681,0.643c0.163,0.601 -0.163,1.268 0,1.869l0.158,1l0.249,1l0.102,1l0.052,1l0.091,1l0.09,1l-0.016,1l0.033,1c0.196,24.432 3.737,43.124 -18.447,42.154c-15.447,-0.675 -14.54,-10.667 -15.334,-14.154l1.829,-1.021c0.602,3.466 0.071,11.198 11.511,13.016c6.352,1.009 17.917,-0.343 18.336,-12.982c0.904,-27.247 -0.233,-33.091 -0.782,-35.912Z" style="fill:#516179;fill-opacity:0.99;"/><path d="M258.704,433.513c3.056,-1.125 36.646,-0.249 59.364,-0.567c1.745,-0.024 3.753,-1.022 3.769,2.917c0.035,9.01 0.79,12.198 -1.796,13.538c0.073,-0.513 0.146,-1.026 0.219,-1.539l-0.054,-1l-0.028,-1l-0.03,-1l-0.047,-1l0.007,-1c0.382,-1.866 0.411,-1.85 0.412,-2.015c0.002,-0.463 0.025,-5.475 -0.531,-5.761c-0.276,-0.142 -59.733,0.069 -59.926,-0.056c-0.569,-0.371 -0.791,-1.147 -1.36,-1.518Z" style="fill:#99abbf;fill-opacity:1;"/><path d="M249.988,437.863c-5.582,-1.324 -5.323,-2.022 -10.873,-3.261c-6.812,-1.52 -24.312,-3.053 -34.292,3.858c-1.261,0.873 -1.376,0.573 -2.625,1.581c-6.778,5.471 -8.783,15.571 -9.134,16.499c-0.451,-0.583 -0.901,-1.166 -1.352,-1.749c2.025,-6.871 5.636,-24.434 37.336,-23.6c19.853,0.523 20.634,4.941 20.94,6.672Z" style="fill:#718299;fill-opacity:0.99;"/><path d="M0.827,433.653c1.874,-0.851 1.955,-0.688 17.238,-0.682c2.88,0.001 34.634,0.013 36,0.026c3.048,0.028 2.382,1.909 2.56,2.873c-0.077,-0.027 -0.113,-1.053 -3.561,-0.968c-2.719,0.067 -9.78,0.241 -33.999,0.128c-14.374,-0.067 -14.594,0.566 -18.238,-1.378Z" style="fill:#7b8da4;fill-opacity:1;"/><path d="M626.668,433.386c1.519,-0.572 1.438,-0.569 3.396,-0.585c46.731,-0.392 53.514,0.083 60.395,10.832c-0.606,-0.238 -1.457,1.655 -2.974,-1.169c-0.169,-0.315 0.275,-0.817 0.025,-1.073c-0.244,-0.25 -0.774,0.239 -1.048,0.023c-0.247,-0.195 0.043,-0.664 -0.112,-0.939c-0.806,-1.434 -2.085,-0.824 -2.134,-0.839c-1.468,-0.481 -0.574,-1.445 -1.966,-2.133c-0.336,-0.166 -0.781,0.382 -1.108,0.198c-0.456,-0.256 -0.4,-1.075 -0.869,-1.308c-1.006,-0.498 -1.069,0.756 -2.106,0.154c-2.27,-1.317 -2.478,-0.431 -5.025,-1.133c-0.431,-0.119 -0.591,-0.767 -1.028,-0.861c-0.989,-0.212 -2.024,-0.026 -3.036,-0.009c-13.004,0.222 -12.926,0.082 -28.013,0.021c-9.34,-0.038 -9.553,1.226 -14.397,-1.177Z" style="fill:#fbfb94;fill-opacity:1;"/><path d="M182.318,433.659c-0.55,0.179 -0.702,1.023 -1.253,1.201c-0.874,0.284 -46.951,0.337 -53.447,-0.044c1.21,-2.611 3.578,-1.825 10.447,-1.838c43.771,-0.078 43.736,0.422 44.253,0.681Z" style="fill:#8d9eb4;fill-opacity:1;"/><path d="M555.897,434.504c1.594,-0.657 10.827,-4.463 21.166,-4.067c21.261,0.813 27.174,8.271 33.203,18.327c-0.48,0.233 -0.721,0.824 -1.201,1.057c-1.124,0.545 -0.052,-2.764 -6.822,-9.206c-2.936,-2.794 -2.592,-3.016 -2.869,-3.221c-0.923,-0.684 -1.257,0.816 -2.023,-0.007c-0.814,-0.874 -1.094,-0.294 -2.09,-1.024c-7.449,-5.465 -27.076,-3.514 -28.225,-3.695c-2.1,-0.331 -1.866,0.954 -4.038,0.963c-1.605,0.007 -1.358,0.69 -3.021,0.913c-1.063,0.143 -2.409,1.111 -2.911,0.89c-0.456,-0.2 -0.712,-0.731 -1.168,-0.931Z" style="fill:#fbf785;fill-opacity:0.99;"/><path d="M149.338,487.866c0.01,14.532 -0.32,14.525 0.281,16.241c0.276,0.788 0.548,1.088 27.446,1.019c4.692,-0.012 6.678,-1.904 7.3,2.739c-2.524,-0.859 -2.978,-1.014 -33.314,-0.685c-3.814,0.041 -4.073,-1.467 -3.551,-13.318l-0,-1l0.019,-1l-0.007,-1l0.019,-1l0.052,-1l1.757,-0.997Z" style="fill:#6c7d93;fill-opacity:0.98;"/><path d="M213.544,492.848c0.071,0.672 -2.119,18.707 27.449,12.61c4.965,-1.024 4.83,-2.588 8.893,-1.493c-0.745,0.397 -1.176,1.252 -1.92,1.649c-0.254,0.135 -8.777,2.309 -11.976,2.754c-24.963,3.469 -23.803,-12.423 -24.152,-13.504l-0.047,-1l1.752,-1.015Z" style="fill:#66778e;fill-opacity:0.99;"/><path d="M352.543,460.861c0.091,10.128 -1.001,14.297 2.519,14.297c13.074,-0 19.045,0.337 20.538,-11.314l1.364,1.019l-0.071,1c-0.929,8.173 -6.06,12.283 -23.864,11.174c-3.067,-0.191 -2.865,-6.489 -2.481,-14.157c0.048,-0.964 0.043,-0.959 0.101,-1.017c0.771,-0.78 1.059,-0.156 1.894,-1.001Z" style="fill:#607188;fill-opacity:0.98;"/><path d="M381.931,487.927c2.696,4.58 19.352,33.627 19.387,33.89c0.099,0.747 -0.119,1.04 -0.173,1.112c-0.335,0.451 -0.581,-0.097 -0.94,0.385c-1.701,-2.448 -1.714,-2.418 -1.837,-2.644c-1.431,-2.621 -0.853,-2.799 -0.997,-3.008c-0.456,-0.662 -0.78,-0.186 -1.175,-0.881c-1.107,-1.944 -1.074,-1.868 -2.195,-3.881c-0.574,-1.031 -6.544,-11.751 -7.23,-12.858c-0.55,-0.887 -6.568,-10.602 -6.734,-11.175c-0.474,-1.636 0.979,-1.1 1.028,-1.155l0.866,0.214Z" style="fill:#5c6c82;fill-opacity:0.99;"/><path d="M23.097,504.814c2.126,0.369 2.363,0.41 26.968,0.318c5.007,-0.019 7.312,-2.216 7.657,2.727l-0.658,-0.352c-5.072,-1.395 -36.394,1.353 -36.092,-1.642c0.142,-1.411 0.716,-0.856 2.124,-1.051Z" style="fill:#798ca2;fill-opacity:0.97;"/><path d="M751.016,433.352c-0.638,0.343 -1.275,0.686 -1.913,1.029c-0.323,0.018 -4.033,0.228 -4.033,0.228c-35.542,0.186 -35.586,0.165 -38.367,-1.136c4.139,-1.756 40.771,-0.265 44.313,-0.121Z" style="fill:#fbfc9a;fill-opacity:1;"/><path d="M89.426,502.848c1.141,3.315 2.152,2.243 5.64,2.252c22.071,0.058 22.05,-0.044 23.967,0.011c2.458,0.071 1.279,1.274 1.576,3.759c-0.198,-2.527 -7.711,-1.698 -13.544,-1.709c-10.273,-0.019 -20.732,0.786 -18.755,-2.299c0.287,-0.447 0.912,-0.618 1.17,-1.083c0.151,-0.272 -0.205,-0.659 -0.054,-0.931Z" style="fill:#7f91a8;fill-opacity:0.97;"/><path d="M149.253,464.869c0.356,3.296 1.804,2.369 10.81,2.363c16.378,-0.011 18.252,-0.807 18.768,2.632l-0.766,-0.187c-1.13,-1.258 -1.394,-0.592 -19.999,-0.644c-4.333,-0.012 -10.804,0.549 -10.594,-2.169c0.071,-0.915 0.094,-0.941 0.148,-1.002c0.706,-0.79 0.984,-0.265 1.634,-0.993Z" style="fill:#72859a;fill-opacity:0.96;"/><path d="M22.631,465.976c2.562,2.441 2.974,1.342 6.436,1.276c21.467,-0.413 21.903,0.002 22.7,1.64c-0.816,0.288 -27.554,-0.091 -29.696,-0.039c-0.488,0.012 -1.089,-0.347 0.56,-2.876Z" style="fill:#6a7e94;fill-opacity:0.95;"/><path d="M803.918,433.734c2.807,-1.656 29.285,-0.951 29.764,-0.485c0.096,0.093 0.048,0.114 0.653,1.541c-19.878,-1.131 -24.055,1.115 -30.418,-1.056Z" style="fill:#fbfe86;fill-opacity:1;"/><path d="M67.743,433.584c1.276,-0.543 1.71,-0.728 17.322,-0.612c2.779,0.021 3.917,-0.642 4.393,2.894c-5.96,-1.984 -17.828,-0.317 -20.366,-0.815c-0.652,-0.128 -0.697,-1.339 -1.349,-1.466Z" style="fill:#8193ab;fill-opacity:1;"/><path d="M353.072,489.869c-0.287,1.247 -0.663,2.88 -0.474,15.991c-0.126,3.355 -1.611,2.379 -2.016,3.003c-0.095,-10.699 -0.519,-16.134 0.486,-20l0.997,0.391l1.007,0.616Z" style="fill:#36465b;fill-opacity:0.98;"/><path d="M747.726,470.423c0.004,0.599 1.35,1.7 -2.698,3.356c-2.627,1.074 -3.45,1.245 -15.878,0.593c-1.188,-0.062 -1.783,0.66 -1.75,-0.508c0.012,-0.428 0.699,-0.643 0.711,-1.071c12.803,1.64 18.253,-1.567 19.615,-2.368Z" style="fill:#fcf98c;fill-opacity:0.99;"/><path d="M214.164,457.895c-0.992,4.024 -0.679,7.414 -0.687,15.973l-1.877,-1.005l-0.123,-1l0.008,-1l-0.01,-1l-0.028,-1l-0.005,-1c0.06,-6.481 0.056,-6.44 0.064,-7c0.009,-0.597 0.084,-0.498 0.092,-1l0.266,-1l0.435,-1l0.195,-1l0.57,-0.848c0.366,0.627 0.733,1.254 1.099,1.88Z" style="fill:#304156;fill-opacity:0.98;"/><path d="M809.026,487.914c1.407,0.058 15.617,0.647 17.599,-0.34c1.412,1.396 3.222,1.307 1.623,2.505c-0.199,0.149 -0.346,0.575 -1.176,0.33c-6.248,-1.844 -19.813,0.425 -19.151,-1.546c0.155,-0.46 0.951,-0.488 1.105,-0.949Z" style="fill:#faf495;fill-opacity:0.97;"/><path d="M647.457,465.853c0.464,1.489 -0.028,2.059 1.565,2.308c9.376,1.461 16.585,-1.928 17.893,-2.543c-0.123,3.116 -0.911,2.863 -3.938,3.776c-1.503,0.453 -9.543,-0.275 -13.912,0.229l-1,-0.123l-1,-0.485l0.041,-1.152c0.117,-0.67 0.234,-1.34 0.351,-2.01Z" style="fill:#f8ef7f;fill-opacity:0.98;"/><path d="M647.575,504.907c1.099,3.204 2.101,2.102 5.49,2.083c9.754,-0.055 9.668,-0.42 13.079,-0.747c-0.073,1.812 -0.012,1.816 -0.079,1.957c-0.387,0.809 -16.45,0.253 -17.879,0.204c-1.833,-0.063 -0.973,-1.486 -1.009,-1.542c0.133,-0.652 0.265,-1.303 0.398,-1.955Z" style="fill:#fcf67c;fill-opacity:1;"/><path d="M352.597,505.86c-0.219,15.091 1.115,16.603 -2.516,17.466c0.371,-3.83 0.425,-3.746 0.5,-14.464c0.405,-0.624 1.889,0.353 2.016,-3.003Z" style="fill:#3b4a61;fill-opacity:0.98;"/><path d="M429.574,475.86c-0.069,10.002 -0.028,16.543 -0.019,17.982c-0.278,-0.673 -1.676,-0.306 -1.953,-0.979c-0.114,-0.276 -0.082,-12.835 -0.035,-13c0.198,-0.699 1.618,-0.349 1.935,-1.002c0,0 0.067,-2.761 0.073,-3.001Z" style="fill:#3e4f65;fill-opacity:0.97;"/><path d="M584.767,505.43c0.024,0.49 0.924,0.636 0.948,1.126c0.077,1.605 -4.311,1.967 -4.719,2.001c-2.493,0.206 -2.306,0.957 -4.908,0.807c-1.616,-0.093 -1.693,-0.808 -1.963,-0.937l0.962,-1.051c4.785,-0.201 4.881,0.237 9.68,-1.946Z" style="fill:#f9ed69;fill-opacity:0.99;"/><path d="M756.14,434.66c3.104,1.202 5.305,1.629 9.16,4.937c-0.411,-0.04 -0.518,0.86 -0.929,0.821c-0.101,-0.01 -0.293,-1.068 -10.253,-4.771c0.674,-0.329 1.348,-0.658 2.022,-0.987Z" style="fill:#f4e969;fill-opacity:0.9;"/><path d="M191.713,454.791c0.451,0.583 0.901,1.166 1.352,1.749l-0.058,1.323l-0.154,1c-0.228,5.596 -0.157,5.661 -0.5,6c-0.496,0.491 -1.336,0.522 -1.832,1.013c0.57,-5.576 0.516,-5.5 1.191,-11.085Z" style="fill:#35455d;fill-opacity:0.87;"/><path d="M684.259,476.363c3.921,1.521 4.333,2.204 7.186,5.183c-0.42,-0.204 -0.594,1.171 -1.014,0.967c-0.469,-0.228 0.28,-1.083 -5.227,-3.908c-1.21,-0.621 -0.864,-0.868 -0.945,-2.242Z" style="fill:#f6ed63;fill-opacity:0.93;"/><path d="M568.372,505.379c3.306,1.18 3.223,1.278 6.715,1.997l-0.962,1.051c-1.873,0.179 -1.86,0.195 -2.022,0.193c-2.604,-0.025 -4.694,-2.115 -4.694,-2.181c0.002,-0.477 0.961,-0.582 0.963,-1.059Z" style="fill:#f5e76e;fill-opacity:0.89;"/><path d="M751.016,433.352c1.708,0.436 3.416,0.872 5.124,1.308c-0.674,0.329 -1.348,0.658 -2.022,0.987c-2.63,-0.197 -2.513,-0.484 -5.015,-1.265c0.638,-0.343 1.275,-0.686 1.913,-1.029Z" style="fill:#f2e772;fill-opacity:0.89;"/><path d="M515.067,473.54c3.485,-0.571 3.437,-0.456 6.998,-0.468c28.969,-0.101 -6.437,0.465 -6.998,0.468Z" style="fill:#3f5065;fill-opacity:0.96;"/><path d="M496.078,473.054c3.051,0.022 2.989,-0.024 5.992,0.461c-1.997,-0.154 -3.995,-0.307 -5.992,-0.461Z" style="fill:#3b4d63;fill-opacity:0.97;"/></g><g id="Logo"><path d="M493.496,110.917c1.524,-0.602 1.525,-0.59 2.985,0.071c4.038,1.829 15.492,4.671 19.182,9.475c-1.806,1.686 -1.173,2.108 -1.397,22.239c-0.088,7.931 3.65,5.8 22.226,16.227c3.613,2.028 6.472,4.509 6.562,0.817c0.607,-24.89 0.064,-25.31 -1.624,-26.614l1.186,-0.931l1.081,0.506c0.55,0.183 0.369,1.294 0.919,1.476c0.083,0.028 0.577,-1.154 1.968,-0.374c2.05,1.151 1.844,1.286 2.975,3.261c-1.015,1.596 -0.934,1.733 -0.794,23.634c0.047,7.334 6.979,6.801 16.081,12.547c2.044,1.29 2.154,-0.149 1.924,-2.541c-0.62,-6.451 1.464,-23.161 -1.308,-25.753c3.694,0.141 6.651,2.694 7.121,3.1c0.667,0.575 1.335,1.15 2.002,1.724c-1.175,0.045 -2.245,-0.44 -2.197,2.916c0.159,11.029 0.092,10.922 0.112,22.016c0.008,4.566 20.052,11.322 23,14.126c2.32,2.207 0.748,9.607 0.723,9.641c-5.224,7.282 -22.563,-8.879 -23.64,-4.784c-0.119,0.453 0.079,27.607 0.097,30.008c0.007,0.906 -0.207,1.414 8.143,5.575c14.741,7.347 16.161,6.67 16.334,10.442c0.714,15.627 -9.566,8.87 -17.336,5.512c-4.196,-1.813 -6.913,-4.641 -6.853,0.485c0.332,28.312 -0.931,31.66 2.549,33.215c16.202,7.237 18.609,6.312 18.682,12.785c0.064,5.678 0.596,52.856 0.234,70.985c-0.19,9.517 1.692,12.435 -4.825,12.663c-57.272,2.004 -89.768,-5.885 -133.07,-14.271c0.083,-0.2 1.346,-0.463 0.98,-2.35c-0.016,-0.08 -0.124,-0.64 -0.122,-1.012c0.197,-42.554 0.223,-42.468 0.093,-85.024c-0.117,-38.639 0.922,-38.871 -1.017,-42.399c7.239,-1.597 11.256,2.634 13.191,2.913c2.246,0.325 -0.099,-4.926 1.507,-37.495c-1.354,-2.867 -2.976,-2.668 -5.373,-3.467c-0.546,0.466 -0.632,1.337 -1.178,1.803c-0.159,0.136 -0.316,-0.415 -0.516,-0.356c-1.429,0.419 -1.271,0.715 -1.39,0.679c-3.179,-0.968 -2.843,-1.656 -3.123,-1.629c-0.536,0.051 -0.771,0.899 -1.307,0.95l-0.663,-1.04l-1,-1.136c-3.129,-0.573 -3.648,-0.612 -4.14,-3.795c-1.72,-11.124 5.494,-10.217 8.36,-12.777c3.873,-3.461 10.198,4.416 10.176,-1.237c-0.058,-15.094 0.033,-25.779 0.051,-26.008c0.366,-4.763 0.064,-5.185 -4.307,-7.299c-7.834,-3.79 -5.144,-5.976 -4.988,-14.71c-0.246,-0.932 -0.492,-1.864 -0.738,-2.796c1.346,-3.172 2.49,-1.89 8.604,0.746c4.842,-0.268 1.976,-2.87 2.13,-14.943c0.153,-11.975 0.165,-11.962 0.173,-13.003c0.05,-6.522 -1.096,-10.877 4.701,-8.031c2.81,1.38 0.959,25.718 1.448,38.037c0.147,3.705 2.314,3.782 5.391,5.289c17.419,8.532 20.011,12.019 19.976,7.696c-0.16,-19.273 -0.036,-19.268 -0.172,-20.937c-0.078,-0.952 -0.132,-1.613 -9.785,-6.845Zm-10.435,170.787c0.033,-1.578 -0.661,-9.245 2.402,-7.657c5.047,2.616 36.546,13.99 36.834,14.148c1.659,0.91 0.719,34.167 0.354,34.546c-0.44,0.458 -1.71,0.455 -11.1,-2.87c-11.91,-4.218 -27.158,-8.388 -27.891,-9.202c-1.552,-1.722 -0.559,-2.104 -0.599,-28.964Zm36.648,-27.207c-2.793,-1.285 -5.789,-1.295 -5.476,-5.793c0.173,-2.49 -0.091,-32.696 0.064,-33.183c0.479,-1.499 1.198,-0.29 18.206,7.433c7.785,3.535 10.671,2.278 10.676,10.756c0.001,2.327 0.016,28.094 -0.134,29.091c-0.296,1.959 -1.688,1.599 -23.335,-8.305Zm-40.31,-56.398c3.642,2.531 22.657,10.629 23.227,11.599c1.339,2.277 1.116,2.435 0.56,33.017c-0.05,2.752 -0.039,4.042 -2.589,3.038c-1.603,-0.631 -12.484,-4.918 -19.859,-8.32c-4.849,-2.237 -3.555,-3.673 -3.514,-20.728c0.041,-17.005 -0.877,-18.832 2.175,-18.606Zm79.316,137.218c-11.858,-3.853 -14.84,-3.692 -14.877,-8.611c-0.017,-2.298 -0.211,-28.082 0.228,-28.728c0.985,-1.447 1.317,-0.296 6.558,1.708c20.108,7.689 20.351,7.132 21.883,8.204c1.959,1.37 1.703,1.855 1.439,29.846c-0.03,3.2 -4.64,0.911 -15.232,-2.419Zm-29.154,-130.499c-2.962,-1.621 -12.917,-6.395 -14.048,-6.937c-2.435,-1.168 -0.657,-22.817 -1.279,-32.248c-0.209,-3.175 3.394,-0.296 3.543,-0.217c12.02,6.374 12.561,5.119 24.532,11.729c1.441,0.796 1.197,1.219 0.641,20.564c-0.238,8.276 2.158,14.421 -3.283,11.892c-0.811,-0.377 -8.328,-3.871 -10.106,-4.784Zm-51.515,-31.111c0.698,-24.788 -0.693,-24.84 -0.081,-26.903c0.178,-0.601 0.607,-1.069 7.525,2.172c17.76,8.32 17.764,9.069 17.771,10.73c0.011,2.469 0.134,30.019 -0.1,30.866c-0.469,1.693 -1.573,1.243 -20.354,-8.251c-4.846,-2.45 -4.534,-3.148 -4.762,-8.614Zm73.699,94.67c-3.995,-2.015 -2.822,-4.15 -2.795,-9.669c0.128,-26.083 -0.35,-26.614 0.687,-26.919c0.818,-0.241 12.347,5.198 13.877,6.107c4.476,2.661 3.238,3.651 3.259,8.808c0.009,2.155 0.105,25.678 -0.333,26.932c-0.412,1.179 -0.987,0.785 -14.695,-5.259Zm7.787,-49.508c-3.236,-1.868 -9.781,-3.74 -10.512,-6.254c-0.337,-1.157 -0.167,-30.736 -0.136,-30.793c1.129,-2.083 17.071,7.261 17.545,7.988c0.462,0.709 0.247,29.593 0.12,30.873c-0.219,2.214 -4.739,-0.752 -7.017,-1.815Zm-99.039,-41.189c0.145,0.198 0.591,-0.194 0.736,0.004c0.364,0.497 0.337,3.701 0.335,4.024c-0.032,3.8 0.476,3.877 -1.222,7.212c-0.294,-0.388 -0.589,-0.775 -0.883,-1.163c2.095,-3.45 1.04,-3.684 1.034,-10.078Z" style="fill:#192f45;fill-opacity:0.99;"/><path d="M319.483,20.467c0.721,-0.396 0.632,-0.373 8.91,-5.139c24.603,-14.162 25.562,-16.928 26.027,-14.587c0.033,0.165 -20.193,36.622 -20.49,37.146c-1.516,-1.291 -1.938,-2.451 -2.974,-0.711c-1.114,1.871 -0.555,2.155 -2.166,3.638c-0.83,0.764 0.689,1.67 -6.809,12.353c-0.886,1.262 -0.242,1.547 -1.32,2.561c-0.946,0.889 -6.071,11.964 -8.136,12.882c-1.398,0.621 -1.669,5.147 -5.125,7.692c-2.73,2.011 -3.035,3.983 -5.125,8.172c-1.26,2.338 -16.981,26.829 -23.901,39.084c-2.963,4.775 -36.568,58.931 -36.413,60.063c0.327,2.386 55.775,-9.186 60.586,-10.19c15.285,-3.19 15.863,-3.749 16.871,-4.722c1.29,-1.246 1.163,-1.597 2.108,-1.458c0.228,0.033 4.968,0.726 2.034,-2.035c-0.218,-0.205 -0.679,0.167 -0.896,-0.038c20.942,-2.994 22.472,-4.535 22.261,-2.443c-0.037,0.367 -60.189,81.785 -65.436,88.887c-16.864,22.826 -16.492,22.995 -33.201,45.835c-5.321,7.273 -48.616,66.452 -65.165,91.888c-1.653,2.002 -1.665,1.865 -2.934,4.007c-6.108,10.308 -0.926,-5.99 8.232,-36.704c2.958,-9.215 34.016,-105.96 37.631,-114.982c1.192,-2.975 -15.593,5.657 -23.602,8.582c-44.66,16.312 -53.685,21.892 -54.406,19.412c-0.074,-0.254 11.145,-34.122 12.126,-37.085c0.606,0.301 0.838,1.127 1.445,1.428c0.929,0.461 0.46,-0.331 0.609,-1.294c0.218,-1.41 1.896,-3.301 2.09,-5.094c0.176,-1.625 0.395,-1.509 0.961,-3.05c1.49,-4.055 1.179,-4.075 2.952,-7.987c0.631,-1.392 0.969,-0.984 1.996,-2.004c0.901,-0.895 -1.223,-0.863 -0.782,-2.864c0.329,-1.496 0.121,-1.561 0.716,-2.166c2.735,-2.784 1.332,-3.552 3.42,-6.851c1.643,-2.597 20.463,-56.626 32.573,-89.143c8.551,-22.96 7.082,-26.836 15.61,-30.509c10.244,-4.412 81.249,-47.535 88.543,-52.803c1.049,-0.758 13.18,-7.432 12.658,-8.528c-0.277,-0.581 -1.203,-0.659 -1.479,-1.24Z" style="fill:#fdd204;fill-opacity:1;"/><path d="M414.223,51.739c0.123,0.437 0.815,0.55 0.938,0.987c0.888,3.142 -0.009,294.221 0.536,294.949c0.346,0.461 1.042,0.571 1.388,1.033l-0.525,1.31c-0.286,-0.057 -56.536,-7.664 -114.903,-6.742c-4.007,-2.001 -1.91,-3.426 -2.267,-29.57c-0.02,-1.459 0.046,-41.43 0.048,-57.002l1.665,-0.996l0.032,-1l0.032,-1l0.008,-1l-0.014,-1l0.019,-1l0.036,-1l-0.016,-1c-0.06,-6.805 0.996,-6.673 0.962,-7.258c-0.023,-0.399 -0.744,-0.524 -0.767,-0.924c0.32,-0.346 0.64,-0.693 0.96,-1.039c1.251,-0.758 1.158,-0.748 1.901,-2.013c0.81,-0.863 0.342,-1.087 1.139,-1.934c0.386,-0.625 0.773,-1.25 1.159,-1.874c1.184,-1.405 1.14,-1.344 2.113,-2.921c0.281,-0.455 1.591,-2.019 1.735,-2.191c0.366,-0.641 0.732,-1.282 1.098,-1.922c0.686,-0.851 0.956,-0.41 1.701,-1.226c0.204,-0.224 -0.081,-0.678 0.123,-0.902c0.362,-0.645 0.724,-1.291 1.085,-1.936l0.32,-0.776c1.367,-0.349 1.394,-0.288 1.477,-0.377c0.372,-0.402 -0.275,-0.553 0.094,-0.952c0.791,-0.914 46.578,-66.859 47.799,-68.512c3.524,-4.771 -4.225,-1.075 -33.503,3.6c-3.876,0.619 -3.593,-0.958 -3.59,-4.847c0.031,-38.474 -0.747,-39.37 2.348,-41.4c21.773,-14.28 22.135,-13.683 23.999,-14.966c3.283,-2.26 0.755,-28.755 1.676,-32.567c0.582,-2.409 4.232,-3.629 4.572,-3.592c3.897,0.426 -0.885,31.514 2.887,30.155c0.018,-0.006 39.498,-26.08 41.271,-27.415c6.644,-5.004 8.844,-3.186 10.461,-9.177Zm-38.175,203.967c0.032,-2.66 -0.621,-10.43 1.479,-11.231c1.895,-0.723 13.141,-5.013 24.058,-8c2.217,-0.607 1.554,1.132 1.811,25.231c0.023,2.138 -0.445,2.794 -24.742,10.118c-3.914,1.18 -2.376,-5.454 -2.605,-16.117Zm0.051,-141.001c0.729,-5.83 2.625,-4.641 7.64,-7.789c4.289,-2.693 8.917,-5.124 9.708,-5.54c8.455,-4.442 10.242,-6.579 10.135,-3.666c-0.743,20.227 -0.085,20.22 -0.154,21.977c-0.146,3.718 -20.63,12.186 -24.738,15.148c-3.652,2.634 -2.44,-1.633 -2.591,-20.131Zm-0.054,77.003c0.47,-16.537 -1.882,-18.422 4.369,-21.456c21.543,-10.454 22.995,-11.495 23.066,-9.5c0.068,1.91 0.671,18.753 -0.153,23.885c-0.275,1.713 -0.659,1.839 -19.79,8.881c-3.457,1.272 -7.579,5.647 -7.492,-1.81Z" style="fill:#12273d;fill-opacity:1;"/><path d="M654.226,234.317c0.584,0.064 0.711,1.133 1.295,1.198c0.261,0.029 -0.171,-1.068 3.076,-1.163c3.545,-0.103 4.043,1.884 5.019,2.321c0.401,0.179 0.914,-0.262 1.315,-0.083c2.863,10.199 -0.515,23.732 1.952,28.73c-0.019,0.543 -0.839,0.843 -0.858,1.387c-0.045,1.266 0.727,0.592 5.607,0.6c0.332,0.001 2.195,0.004 3.969,-1.226l0.999,0.025c0.326,0.239 -0.16,2.29 3.995,2.277c0.22,-0.001 2.912,-0.009 2.185,-1.676c-0.193,-0.442 -0.909,-0.495 -1.101,-0.936c0.82,-10.046 0.699,-9.995 0.396,-20.061c-0.294,-9.776 2.058,-10.669 2.355,-11.156c1.851,0.799 1.853,0.963 1.994,0.861c1.38,-0.999 1.346,-1.062 4.221,-0.941c3.228,-0.307 3.158,-0.2 3.429,-0.245c5.558,6.675 0.353,26.198 2.807,33.118l-0.017,1.36c2.359,0.823 9.313,1.382 10.792,0.978c0.765,2.514 2.792,40.498 -2.264,50.92c-9.627,19.846 -26.759,15.309 -28.226,18.914c-0.458,1.127 -7.246,59.778 -99.562,61.929c-60.108,1.401 -118.945,-16.677 -159.942,-22.22c-13.672,-1.849 -86.621,-15.549 -169.998,-6.06c-7.427,0.845 -35.275,6.592 -44.946,11.775c-0.127,0.068 -0.194,0.222 -0.321,0.29c-7.766,4.17 1.848,-6.395 3.019,-7.705c13.88,-14.579 14.228,-15.423 34.149,-18.288c7.032,-1.012 6.945,-1.141 14.015,-2.006l1.036,1.241l1,-0.052c5.595,-0.091 5.666,0.034 6,-0.312c0.494,-0.51 0.487,-1.381 0.981,-1.891c2.364,-0.215 30.557,-4.028 79.004,-1.066c0.46,0.462 0.555,1.209 1.014,1.671c0.812,0.816 12.915,0.525 14.038,0.498c4.451,2.133 5.45,1.083 10.987,0.896c1.163,-0.039 0.946,-0.468 2.002,-0.99c0.493,0.484 0.479,1.347 0.973,1.831c0.141,0.138 0.185,0.082 7.041,0.165c1.208,0.015 0.948,-0.483 1.985,-1.01c0.342,0.242 -0.206,2.275 3.993,2.152c1.547,-0.045 1.471,0.016 2.981,0.032l1.043,-1.183c0.014,0.015 0.039,2.844 5.997,2.236c2.001,-0.204 3.832,1.586 6.979,1.123c1.679,-0.247 1.565,0.771 20.936,3.405c8.242,1.121 8.412,1.193 9.091,1.479c1.216,0.513 1.344,-0.146 15.898,4.409c8.867,2.775 62.051,13.75 65.117,11.971c1.038,-0.602 0.956,-0.528 1.94,-1.071l1,-0.138c2.998,-0.463 2.923,-0.307 6,-0.284l1,0.099l1,0.535c0.629,0.114 5.159,0.933 7.958,-0.777c41.727,5.133 106.928,11.012 128.536,-40.294c0.11,-0.261 0.227,-0.194 1.508,-3.2c-4,-5.374 -18.102,-0.311 -25.089,-23.973c-1.815,-6.146 -1.344,-21.805 -1.316,-30.03c0.032,-9.373 -0.847,-16.924 5.29,-19.414c0.5,0.098 0.613,0.95 1.113,1.049c1.309,0.257 2.668,-0.058 4.002,-0.044c4.445,0.047 5.526,2.302 7.8,-1.589l-1.155,-1.091c0.136,-25.087 -0.274,-25.564 2.964,-29.299Zm36.436,48.999c0.769,0.287 2.008,-0.323 1.918,2.39c-0.7,20.943 0.555,26.509 -6.199,33.729c-4.58,3.773 -5.01,2.833 -10.786,3.95c-5.17,-0.071 -5.237,0.484 -10.134,-1.208c-14.362,-5.651 -12.047,-11.997 -12.141,-35.47c-0.011,-2.784 -1.324,-5.326 3.302,-5.185c7.018,0.214 6.919,0.728 14.005,0.84c10.095,0.159 10.001,0.824 20.034,0.952Zm-25.2,38.862c4.896,1.692 4.964,1.136 10.134,1.208c-0.5,0.458 -0.479,1.324 -0.979,1.781c-0.024,0.022 -3.35,0.135 -3.994,0.118c-1.601,-0.042 -1.393,-0.458 -2.818,-1.073c-0.162,-0.07 -0.162,-0.023 -2.188,-0.305c-0.052,-0.576 -0.103,-1.153 -0.155,-1.729Z" style="fill:#f8c602;fill-opacity:0.99;"/><path d="M417.624,10.814c11.62,5.607 74.431,37.789 80.891,41.099c10.738,5.502 13.657,8.158 16.427,8.787c0.209,49.445 -0.514,49.453 0.124,53.702c-0.588,0.039 -0.861,0.972 -1.449,1.01c-0.171,0.011 0.002,-0.263 -1.881,-1.015c-4.275,-1.708 -9.486,-4.684 -9.997,-5.048c2.482,-1.244 1.838,-1.829 1.845,-4.641c0.029,-13.166 0.044,-13.124 0.011,-13.998c-0.021,-0.558 0.41,-1.34 -9.079,-5.81c-33.374,-15.72 -48.211,-23.773 -64.795,-31.448c-3.711,-1.718 -2.566,1.513 -2.562,15.254c0.007,22.24 0.088,276.629 0.04,277.999c-0.184,5.19 -5.485,3.429 -10.639,3.312l0.525,-1.31c1.342,-4.036 0.628,-4.098 0.618,-11.999c-0.379,-299.844 0.319,-299.825 -0.079,-325.893Z" style="fill:#12263b;fill-opacity:0.99;"/><path d="M456.47,230.309c1.94,3.527 0.9,3.76 1.017,42.399c0.129,42.557 0.104,42.47 -0.093,85.024c-0.002,0.372 0.107,0.932 0.122,1.012c0.366,1.888 -0.897,2.151 -0.98,2.35c-6.248,-1.759 -6.223,-1.542 -8.958,-2.26c-4.167,-1.093 -2.985,-5.733 -2.985,-7.127c-0.028,-104.954 -0.194,-104.881 -0.081,-114c0.072,-5.764 2.554,-4.379 11.959,-7.399Z" style="fill:#051629;fill-opacity:0.99;"/><path d="M319.483,20.467c0.277,0.581 1.203,0.659 1.479,1.24c0.522,1.096 -11.609,7.771 -12.658,8.528c-7.293,5.268 -78.299,48.391 -88.543,52.803c-8.528,3.673 -7.059,7.549 -15.61,30.509c-12.11,32.517 -30.93,86.546 -32.573,89.143c-2.088,3.299 -0.685,4.068 -3.42,6.851c-0.595,0.606 -0.387,0.671 -0.716,2.166c-0.441,2.002 1.683,1.97 0.782,2.864c-1.028,1.021 -1.365,0.613 -1.996,2.004c-1.773,3.912 -1.462,3.932 -2.952,7.987c-0.566,1.541 -0.786,1.425 -0.961,3.05c-0.194,1.793 -1.871,3.684 -2.09,5.094c-0.149,0.963 0.32,1.756 -0.609,1.294c-0.606,-0.301 -0.838,-1.127 -1.445,-1.428c24.849,-76.357 48.903,-145.065 50.456,-147.857c0.995,-1.789 104.356,-60.008 110.854,-64.248Z" style="fill:#fded0a;fill-opacity:0.99;"/><path d="M302.277,84.474c0.218,0.615 1.283,0.642 1.502,1.257c0.091,0.256 -1.999,4.585 -2.188,4.977c-0.952,1.972 -1.888,2.202 -5.675,9.12c-0.347,0.634 -0.449,0.462 -0.877,1.118c-2.174,3.33 0.613,3.588 1.056,4.025c-3.284,7.001 -29.217,51.108 -31.812,55.521c-6.313,10.737 -10.605,16.642 -6.697,15.753c2.744,-0.624 2.657,-0.542 65.081,-11.068c0.218,0.205 0.679,-0.167 0.896,0.038c2.934,2.761 -1.806,2.068 -2.034,2.035c-0.946,-0.138 -0.818,0.213 -2.108,1.458c-1.008,0.974 -1.587,1.532 -16.871,4.722c-4.811,1.004 -60.259,12.576 -60.586,10.19c-0.155,-1.132 33.45,-55.288 36.413,-60.063c6.92,-12.255 22.641,-36.746 23.901,-39.084Z" style="fill:#fded46;fill-opacity:0.99;"/><path d="M415.676,6.872c-0.832,2.802 -0.957,3.833 1.948,3.942c0.397,26.068 -0.301,26.049 0.079,325.893c0.01,7.902 0.724,7.964 -0.618,11.999c-0.346,-0.461 -1.042,-0.571 -1.388,-1.033c-0.545,-0.727 0.352,-291.807 -0.536,-294.949c-0.123,-0.437 -0.815,-0.55 -0.938,-0.987c-0.013,-9.551 -0.228,-9.466 -0.16,-19.028c0.167,-23.583 -0.522,-24.101 1.613,-25.839Z" style="fill:#667994;fill-opacity:0.99;"/><path d="M501.739,109.349c0.511,0.365 5.722,3.34 9.997,5.048c1.884,0.753 1.711,1.026 1.881,1.015c0.588,-0.039 0.861,-0.972 1.449,-1.01c1.465,1.652 20.971,10.173 26.52,13.451c0.511,-0.127 1.023,-0.254 1.534,-0.38c-0.533,-18.075 -0.034,-18.535 1.428,-18.952c3.751,-1.069 3.886,2.791 3.9,3.194c0.627,17.915 -0.914,19.044 2.353,20.604c14.147,6.758 16.014,8.643 16.221,5.462c0.132,-2.031 -0.867,-9.211 3.503,-7.717c3.789,1.295 -0.031,11.402 3.331,13.194c2.741,1.461 10.268,4.227 12.868,7.409l-0.4,0.946c-0.854,1.614 -0.874,1.544 -1.512,3.255c-0.44,1.179 -0.791,0.731 -2.242,0.935c-0.015,-1.554 0.505,-2.038 -2.184,-3.653c0.064,-0.57 0.874,-0.872 0.938,-1.442c0.007,-0.059 -1.428,-1.166 -1.705,-1.278c-3.06,-1.236 -2.759,-2.48 -6,-1.912l-1.034,0.538c-0.47,-0.406 -3.427,-2.958 -7.121,-3.1c-3.631,-1.831 -10.758,-4.23 -15.902,-7.886c-1.131,-1.975 -0.925,-2.11 -2.975,-3.261c-1.391,-0.78 -1.884,0.402 -1.968,0.374c-0.55,-0.183 -0.369,-1.294 -0.919,-1.476l-1.081,-0.506l-1.186,0.931c-1.525,-0.713 -17.908,-8.374 -18.967,-9.1c-1.336,-0.674 -1.24,-0.874 -2.698,-0.686c-1.062,-0.953 -1.068,-0.833 -2.119,-1.703c-0.951,-0.788 -1.027,-0.474 -1.984,-1.181c-3.69,-4.804 -15.144,-7.647 -19.182,-9.475c-1.46,-0.661 -1.461,-0.673 -2.985,-0.071c-0.347,-0.196 -3.596,-2.029 -3.792,-3.234c-1.015,-6.22 9.065,0.014 12.035,1.665Z" style="fill:#273b52;fill-opacity:0.98;"/><path d="M387.579,359.092c81.518,10.053 89.086,16.109 134.988,22.055c0.017,0.61 0.034,1.221 0.05,1.831l-1,-0.535l-1,-0.099c-3.077,-0.022 -3.002,-0.178 -6,0.284l-1,0.138c-0.984,0.543 -0.902,0.469 -1.94,1.071c-3.066,1.778 -56.25,-9.196 -65.117,-11.971c-14.553,-4.555 -14.682,-3.896 -15.898,-4.409c-0.679,-0.286 -0.849,-0.358 -9.091,-1.479c-19.371,-2.634 -19.257,-3.653 -20.936,-3.405c-3.147,0.463 -4.977,-1.327 -6.979,-1.123c-5.958,0.608 -5.983,-2.22 -5.997,-2.236l-0.081,-0.123Z" style="fill:#fced5e;fill-opacity:0.99;"/><path d="M415.676,6.872c1.954,0.225 12.175,5.442 14.041,6.648c1.38,0.893 17.417,8.987 19.001,9.999c3.558,2.273 4.019,1.263 47.008,23.99c17.361,9.178 18.813,8.655 19.217,13.192c-2.77,-0.629 -5.689,-3.285 -16.427,-8.787c-6.46,-3.31 -69.271,-35.492 -80.891,-41.099c-2.905,-0.109 -2.781,-1.141 -1.948,-3.942Z" style="fill:#47586e;fill-opacity:0.99;"/><path d="M333.93,37.888c-32.321,57.854 -32.026,57.962 -37.836,67.082c-0.442,-0.437 -3.229,-0.695 -1.056,-4.025c0.428,-0.655 0.53,-0.484 0.877,-1.118c3.787,-6.918 4.724,-7.148 5.675,-9.12c0.189,-0.392 2.279,-4.72 2.188,-4.977c-0.218,-0.615 -1.283,-0.642 -1.502,-1.257c2.089,-4.188 2.394,-6.161 5.125,-8.172c3.456,-2.545 3.727,-7.07 5.125,-7.692c2.064,-0.918 7.19,-11.993 8.136,-12.882c1.078,-1.014 0.434,-1.299 1.32,-2.561c7.499,-10.683 5.979,-11.589 6.809,-12.353c1.61,-1.483 1.052,-1.767 2.166,-3.638c1.036,-1.74 1.458,-0.58 2.974,0.711Z" style="fill:#fce106;fill-opacity:0.99;"/><path d="M690.663,283.316c0.651,-0.463 1.303,-0.926 1.954,-1.389c3.373,1.423 2.622,2.551 2.584,22.78c-0.015,7.973 -2.316,10.856 -2.914,11.604c-4.112,5.151 -4.06,5.23 -4.426,5.396c-0.198,0.089 -0.104,-0.16 -1.48,-2.271c6.754,-7.221 5.499,-12.786 6.199,-33.729c0.091,-2.714 -1.149,-2.103 -1.918,-2.39Z" style="fill:#f3b501;fill-opacity:0.98;"/><path d="M301.396,240.525c0.023,0.399 0.744,0.524 0.767,0.924c0.033,0.585 -1.023,0.453 -0.962,7.258l0.016,1l-0.036,1l-0.019,1l0.014,1l-0.008,1l-0.032,1l-0.032,1l-1.665,0.996c-0.006,-10.776 -0.929,-11.76 1.958,-16.178Z" style="fill:#101f32;fill-opacity:0.98;"/><path d="M341.603,355.153c1.362,0.013 3.579,0.035 16.994,1.006c-0.647,0.387 -1.295,0.775 -1.942,1.162c-1.123,0.027 -13.227,0.318 -14.038,-0.498c-0.46,-0.462 -0.555,-1.209 -1.014,-1.671Z" style="fill:#fbf879;fill-opacity:0.99;"/><path d="M575.8,150.388c1.528,0.587 3.055,1.174 4.583,1.761c2.689,1.615 2.17,2.1 2.184,3.653c-5.775,0.13 -6.76,-2.553 -7.951,-3.849l1.184,-1.565Z" style="fill:#0b1722;fill-opacity:0.39;"/><path d="M358.597,356.16c2.565,0.233 2.462,0.071 5.049,0.306c0.476,0.043 0.44,0.047 5.941,0.64l0.058,0.123c-1.056,0.522 -0.838,0.951 -2.002,0.99c-5.538,0.186 -6.536,1.237 -10.987,-0.896c0.647,-0.387 1.295,-0.775 1.942,-1.162Z" style="fill:#fbf981;fill-opacity:0.99;"/><path d="M651.263,263.616l1.155,1.091c-2.274,3.891 -3.355,1.637 -7.8,1.589c-1.334,-0.014 -2.693,0.301 -4.002,0.044c-0.5,-0.098 -0.613,-0.95 -1.113,-1.049c3.019,-0.527 2.967,-0.592 7.113,-0.599c2.512,-0.004 2.583,0.33 4.646,-1.077Z" style="fill:#f5ed8e;fill-opacity:0.98;"/><path d="M328.627,178.73c-0.388,-0.287 -3.794,-2.805 -0.965,-5.96c1.204,-1.342 1.409,-0.78 3.156,-0.409c2.403,0.511 -0.369,1.943 -2.191,6.369Z" style="fill:#f9c700;fill-opacity:0.99;"/><path d="M654.226,234.317c6.404,-4.981 10.066,0.897 10.705,2.273c-0.401,-0.179 -0.914,0.262 -1.315,0.083c-0.976,-0.436 -1.474,-2.424 -5.019,-2.321c-3.247,0.094 -2.814,1.191 -3.076,1.163c-0.584,-0.064 -0.711,-1.133 -1.295,-1.198Z" style="fill:#fcf385;fill-opacity:0.99;"/><path d="M572.583,148.056l1.034,-0.538c3.241,-0.568 2.94,0.676 6,1.912c0.277,0.112 1.711,1.219 1.705,1.278c-0.064,0.57 -0.874,0.872 -0.938,1.442c-1.528,-0.587 -3.055,-1.174 -4.583,-1.761c-0.405,-0.203 -0.81,-0.406 -1.215,-0.608c-0.667,-0.575 -1.335,-1.15 -2.002,-1.724Z" style="fill:#112235;fill-opacity:0.99;"/><path d="M665.462,322.179c4.896,1.692 4.964,1.136 10.134,1.208c-0.5,0.458 -0.479,1.324 -0.979,1.781c-0.024,0.022 -3.35,0.135 -3.994,0.118c-1.601,-0.042 -1.393,-0.458 -2.818,-1.073c-0.162,-0.07 -0.162,-0.023 -2.188,-0.305c-0.052,-0.576 -0.103,-1.153 -0.155,-1.729Z" style="fill:#efe25c;fill-opacity:0.85;"/><path d="M696.882,267.347c5.605,1.362 7.87,-0.67 10.775,2.338c-1.479,0.405 -8.433,-0.154 -10.792,-0.978l0.017,-1.36Z" style="fill:#f9fb90;fill-opacity:0.98;"/><path d="M369.587,357.105c0.881,0.073 5.052,0.42 11.004,1.034l-0.948,0.074c-1.037,0.528 -0.777,1.025 -1.985,1.01c-6.857,-0.083 -6.9,-0.026 -7.041,-0.165c-0.493,-0.484 -0.479,-1.347 -0.973,-1.831l-0.058,-0.123Z" style="fill:#faf87a;fill-opacity:0.98;"/><path d="M262.598,356.22c-0.494,0.51 -0.487,1.381 -0.981,1.891c-0.334,0.345 -0.405,0.221 -6,0.312l-1,0.052l-1.036,-1.241c3.006,-0.338 6.011,-0.676 9.017,-1.014Z" style="fill:#f3e354;fill-opacity:0.89;"/><path d="M666.884,265.32c4.383,0.569 4.292,0.474 8.718,0.761c-1.774,1.23 -3.637,1.227 -3.969,1.226c-4.88,-0.008 -5.652,0.666 -5.607,-0.6c0.019,-0.543 0.839,-0.843 0.858,-1.387Z" style="fill:#eddc79;fill-opacity:0.82;"/><path d="M380.591,358.14c0.561,0.063 3.062,0.347 6.988,0.952l0.081,0.123l-1.043,1.183c-1.51,-0.016 -1.433,-0.077 -2.981,-0.032c-4.199,0.123 -3.651,-1.91 -3.993,-2.152l0.948,-0.074Z" style="fill:#e8e05d;fill-opacity:0.86;"/><path d="M676.601,266.106c1.693,-0.112 3.386,-0.224 5.079,-0.336c0.193,0.442 0.909,0.495 1.101,0.936c0.727,1.668 -1.965,1.676 -2.185,1.676c-4.155,0.013 -3.669,-2.038 -3.995,-2.277Z" style="fill:#efdd61;fill-opacity:0.87;"/><path d="M460.493,177.681c0.145,0.198 0.591,-0.194 0.736,0.004c0.364,0.497 0.337,3.701 0.335,4.024c-0.032,3.8 0.476,3.877 -1.222,7.212c-0.294,-0.388 -0.589,-0.775 -0.883,-1.163c2.095,-3.45 1.04,-3.684 1.034,-10.078Z" style="fill:#0a1729;fill-opacity:0.85;"/><path d="M522.566,381.147c2.669,0.351 5.339,0.703 8.008,1.054c-2.799,1.709 -7.329,0.891 -7.958,0.777c-0.017,-0.61 -0.034,-1.221 -0.05,-1.831Z" style="fill:#e5d965;fill-opacity:0.85;"/><path d="M687.551,232.481c2.739,0.081 3.121,-0.996 6.524,1.747c-0.271,0.045 -0.201,-0.062 -3.429,0.245c-1.901,-0.989 -1.892,-0.977 -2.053,-1.068c-0.65,-0.367 -0.388,-0.556 -1.042,-0.925Z" style="fill:#e4d998;fill-opacity:0.87;"/><path d="M687.551,232.481c0.654,0.369 0.392,0.558 1.042,0.925c0.161,0.091 0.152,0.079 2.053,1.068c-2.875,-0.121 -2.841,-0.058 -4.221,0.941c-0.141,0.102 -0.143,-0.062 -1.994,-0.861c1.384,-1.312 1.323,-1.336 3.119,-2.073Z" style="fill:#f2e387;fill-opacity:0.96;"/><path d="M460.493,177.681c0.005,6.393 1.061,6.628 -1.034,10.078c0.623,-9.273 0.193,-9.224 0.31,-10.017c0.035,-0.24 0.69,0.179 0.725,-0.061Z" style="fill:#0b1828;fill-opacity:0.71;"/><path d="M368.564,228.892c-1.804,-0.256 -2.223,-0.675 -1.295,-2.278c1.066,-1.84 1.127,0.139 1.295,2.278Z" style="fill:#11293f;fill-opacity:1;"/><path d="M304.257,237.473c-0.743,1.265 -0.65,1.255 -1.901,2.013c0.979,-1.048 0.925,-0.991 1.901,-2.013Z" style="fill:#212520;fill-opacity:0.65;"/><path d="M461.031,122.908c0.246,0.932 0.492,1.864 0.738,2.796c-0.641,-1.379 -0.822,-1.28 -0.738,-2.796Z" style="fill:#0c1827;fill-opacity:0.73;"/><path d="M519.766,123.347c1.457,-0.188 1.362,0.012 2.698,0.686c-1.393,-0.256 -1.309,-0.282 -2.698,-0.686Z" style="fill:#091723;fill-opacity:0.73;"/><path d="M314.412,222.567c-0.362,0.645 -0.724,1.291 -1.085,1.936c0.407,-1.098 0.385,-1.022 1.085,-1.936Z" style="fill:#28291f;fill-opacity:0.6;"/><path d="M316.302,220.461c-0.369,0.399 0.278,0.551 -0.094,0.952c-0.083,0.089 -0.109,0.028 -1.477,0.377c0.668,-0.849 0.627,-0.826 1.571,-1.329Z" style="fill:#1f2219;fill-opacity:0.62;"/><path d="M311.502,226.631c-0.366,0.641 -0.732,1.282 -1.098,1.922c0.366,-0.641 0.732,-1.282 1.098,-1.922Z" style="fill:#353328;fill-opacity:0.51;"/><path d="M638.027,271.379c0.318,-1.095 -0.599,-1.998 0.472,-1.625c1.068,0.372 -0.163,0.56 -0.472,1.625Z" style="fill:#f8b700;fill-opacity:1;"/><path d="M306.556,233.665c-0.386,0.625 -0.773,1.25 -1.159,1.874c0.386,-0.625 0.773,-1.25 1.159,-1.874Z" style="fill:#2f3229;fill-opacity:0.52;"/></g></g></g></svg>