<?xml version="1.0" encoding="UTF-8" standalone="no"?><!DOCTYPE svg PUBLIC "-//W3C//DTD SVG 1.1//EN" "http://www.w3.org/Graphics/SVG/1.1/DTD/svg11.dtd"><svg width="100%" height="100%" viewBox="0 0 563 402" version="1.1" xmlns="http://www.w3.org/2000/svg" xmlns:xlink="http://www.w3.org/1999/xlink" xml:space="preserve" xmlns:serif="http://www.serif.com/" style="fill-rule:evenodd;clip-rule:evenodd;stroke-linejoin:round;stroke-miterlimit:2;"><g id="Logo"><path d="M347.45,110.917c1.524,-0.602 1.525,-0.59 2.985,0.071c4.038,1.829 15.492,4.671 19.182,9.475c-1.806,1.686 -1.173,2.108 -1.397,22.239c-0.088,7.931 3.65,5.8 22.226,16.227c3.613,2.028 6.472,4.509 6.562,0.817c0.607,-24.89 0.064,-25.31 -1.624,-26.614l1.186,-0.931l1.081,0.506c0.55,0.183 0.369,1.294 0.919,1.476c0.083,0.028 0.577,-1.154 1.968,-0.374c2.05,1.151 1.844,1.286 2.975,3.261c-1.015,1.596 -0.934,1.733 -0.794,23.634c0.047,7.334 6.979,6.801 16.081,12.547c2.044,1.29 2.154,-0.149 1.924,-2.541c-0.62,-6.451 1.464,-23.161 -1.308,-25.753c3.694,0.141 6.651,2.694 7.121,3.1c0.667,0.575 1.335,1.15 2.002,1.724c-1.175,0.045 -2.245,-0.44 -2.197,2.916c0.159,11.029 0.092,10.922 0.112,22.016c0.008,4.566 20.052,11.322 23,14.126c2.32,2.207 0.748,9.607 0.723,9.641c-5.224,7.282 -22.563,-8.879 -23.64,-4.784c-0.119,0.453 0.079,27.607 0.097,30.008c0.007,0.906 -0.207,1.414 8.143,5.575c14.741,7.347 16.161,6.67 16.334,10.442c0.714,15.627 -9.566,8.87 -17.336,5.512c-4.196,-1.813 -6.913,-4.641 -6.853,0.485c0.332,28.312 -0.931,31.66 2.549,33.215c16.202,7.237 18.609,6.312 18.682,12.785c0.064,5.678 0.596,52.856 0.234,70.985c-0.19,9.517 1.692,12.435 -4.825,12.663c-57.272,2.004 -89.768,-5.885 -133.07,-14.271c0.083,-0.2 1.346,-0.463 0.98,-2.35c-0.016,-0.08 -0.124,-0.64 -0.122,-1.012c0.197,-42.554 0.223,-42.468 0.093,-85.024c-0.117,-38.639 0.922,-38.871 -1.017,-42.399c7.239,-1.597 11.256,2.634 13.191,2.913c2.246,0.325 -0.099,-4.926 1.507,-37.495c-1.354,-2.867 -2.976,-2.668 -5.373,-3.467c-0.546,0.466 -0.632,1.337 -1.178,1.803c-0.159,0.136 -0.316,-0.415 -0.516,-0.356c-1.429,0.419 -1.271,0.715 -1.39,0.679c-3.179,-0.968 -2.843,-1.656 -3.123,-1.629c-0.536,0.051 -0.771,0.899 -1.307,0.95l-0.663,-1.04l-1,-1.136c-3.129,-0.573 -3.648,-0.612 -4.14,-3.795c-1.72,-11.124 5.494,-10.217 8.36,-12.777c3.873,-3.461 10.198,4.416 10.176,-1.237c-0.058,-15.094 0.033,-25.779 0.051,-26.008c0.366,-4.763 0.064,-5.185 -4.307,-7.299c-7.834,-3.79 -5.144,-5.976 -4.988,-14.71c-0.246,-0.932 -0.492,-1.864 -0.738,-2.796c1.346,-3.172 2.49,-1.89 8.604,0.746c4.842,-0.268 1.976,-2.87 2.13,-14.943c0.153,-11.975 0.165,-11.962 0.173,-13.003c0.05,-6.522 -1.096,-10.877 4.701,-8.031c2.81,1.38 0.959,25.718 1.448,38.037c0.147,3.705 2.314,3.782 5.391,5.289c17.419,8.532 20.011,12.019 19.976,7.696c-0.16,-19.273 -0.036,-19.268 -0.172,-20.937c-0.078,-0.952 -0.132,-1.613 -9.785,-6.845Zm-10.435,170.787c0.033,-1.578 -0.661,-9.245 2.402,-7.657c5.047,2.616 36.546,13.99 36.834,14.148c1.659,0.91 0.719,34.167 0.354,34.546c-0.44,0.458 -1.71,0.455 -11.1,-2.87c-11.91,-4.218 -27.158,-8.388 -27.891,-9.202c-1.552,-1.722 -0.559,-2.104 -0.599,-28.964Zm36.648,-27.207c-2.793,-1.285 -5.789,-1.295 -5.476,-5.793c0.173,-2.49 -0.091,-32.696 0.064,-33.183c0.479,-1.499 1.198,-0.29 18.206,7.433c7.785,3.535 10.671,2.278 10.676,10.756c0.001,2.327 0.016,28.094 -0.134,29.091c-0.296,1.959 -1.688,1.599 -23.335,-8.305Zm-40.31,-56.398c3.642,2.531 22.657,10.629 23.227,11.599c1.339,2.277 1.116,2.435 0.56,33.017c-0.05,2.752 -0.039,4.042 -2.589,3.038c-1.603,-0.631 -12.484,-4.918 -19.859,-8.32c-4.849,-2.237 -3.555,-3.673 -3.514,-20.728c0.041,-17.005 -0.877,-18.832 2.175,-18.606Zm79.316,137.218c-11.858,-3.853 -14.84,-3.692 -14.877,-8.611c-0.017,-2.298 -0.211,-28.082 0.228,-28.728c0.985,-1.447 1.317,-0.296 6.558,1.708c20.108,7.689 20.351,7.132 21.883,8.204c1.959,1.37 1.703,1.855 1.439,29.846c-0.03,3.2 -4.64,0.911 -15.232,-2.419Zm-29.154,-130.499c-2.962,-1.621 -12.917,-6.395 -14.048,-6.937c-2.435,-1.168 -0.657,-22.817 -1.279,-32.248c-0.209,-3.175 3.394,-0.296 3.543,-0.217c12.02,6.374 12.561,5.119 24.532,11.729c1.441,0.796 1.197,1.219 0.641,20.564c-0.238,8.276 2.158,14.421 -3.283,11.892c-0.811,-0.377 -8.328,-3.871 -10.106,-4.784Zm-51.515,-31.111c0.698,-24.788 -0.693,-24.84 -0.081,-26.903c0.178,-0.601 0.607,-1.069 7.525,2.172c17.76,8.32 17.764,9.069 17.771,10.73c0.011,2.469 0.134,30.019 -0.1,30.866c-0.469,1.693 -1.573,1.243 -20.354,-8.251c-4.846,-2.45 -4.534,-3.148 -4.762,-8.614Zm73.699,94.67c-3.995,-2.015 -2.822,-4.15 -2.795,-9.669c0.128,-26.083 -0.35,-26.614 0.687,-26.919c0.818,-0.241 12.347,5.198 13.877,6.107c4.476,2.661 3.238,3.651 3.259,8.808c0.009,2.155 0.105,25.678 -0.333,26.932c-0.412,1.179 -0.987,0.785 -14.695,-5.259Zm7.787,-49.508c-3.236,-1.868 -9.781,-3.74 -10.512,-6.254c-0.337,-1.157 -0.167,-30.736 -0.136,-30.793c1.129,-2.083 17.071,7.261 17.545,7.988c0.462,0.709 0.247,29.593 0.12,30.873c-0.219,2.214 -4.739,-0.752 -7.017,-1.815Zm-99.039,-41.189c0.145,0.198 0.591,-0.194 0.736,0.004c0.364,0.497 0.337,3.701 0.335,4.024c-0.032,3.8 0.476,3.877 -1.222,7.212c-0.294,-0.388 -0.589,-0.775 -0.883,-1.163c2.095,-3.45 1.04,-3.684 1.034,-10.078Z" style="fill:#192f45;fill-opacity:0.99;"/><path d="M173.437,20.467c0.721,-0.396 0.632,-0.373 8.91,-5.139c24.603,-14.162 25.562,-16.928 26.027,-14.587c0.033,0.165 -20.193,36.622 -20.49,37.146c-1.516,-1.291 -1.938,-2.451 -2.974,-0.711c-1.114,1.871 -0.555,2.155 -2.166,3.638c-0.83,0.764 0.689,1.67 -6.809,12.353c-0.886,1.262 -0.242,1.547 -1.32,2.561c-0.946,0.889 -6.071,11.964 -8.136,12.882c-1.398,0.621 -1.669,5.147 -5.125,7.692c-2.73,2.011 -3.035,3.983 -5.125,8.172c-1.26,2.338 -16.981,26.829 -23.901,39.084c-2.963,4.775 -36.568,58.931 -36.413,60.063c0.327,2.386 55.775,-9.186 60.586,-10.19c15.285,-3.19 15.863,-3.749 16.871,-4.722c1.29,-1.246 1.163,-1.597 2.108,-1.458c0.228,0.033 4.968,0.726 2.034,-2.035c-0.218,-0.205 -0.679,0.167 -0.896,-0.038c20.942,-2.994 22.472,-4.535 22.261,-2.443c-0.037,0.367 -60.189,81.785 -65.436,88.887c-16.864,22.826 -16.492,22.995 -33.201,45.835c-5.321,7.273 -48.616,66.452 -65.165,91.888c-1.653,2.002 -1.665,1.865 -2.934,4.007c-6.108,10.308 -0.926,-5.99 8.232,-36.704c2.958,-9.215 34.016,-105.96 37.631,-114.982c1.192,-2.975 -15.593,5.657 -23.602,8.582c-44.66,16.312 -53.685,21.892 -54.406,19.412c-0.074,-0.254 11.145,-34.122 12.126,-37.085c0.606,0.301 0.838,1.127 1.445,1.428c0.929,0.461 0.46,-0.331 0.609,-1.294c0.218,-1.41 1.896,-3.301 2.09,-5.094c0.176,-1.625 0.395,-1.509 0.961,-3.05c1.49,-4.055 1.179,-4.075 2.952,-7.987c0.631,-1.392 0.969,-0.984 1.996,-2.004c0.901,-0.895 -1.223,-0.863 -0.782,-2.864c0.329,-1.496 0.121,-1.561 0.716,-2.166c2.735,-2.784 1.332,-3.552 3.42,-6.851c1.643,-2.597 20.463,-56.626 32.573,-89.143c8.551,-22.96 7.082,-26.836 15.61,-30.509c10.244,-4.412 81.249,-47.535 88.543,-52.803c1.049,-0.758 13.18,-7.432 12.658,-8.528c-0.277,-0.581 -1.203,-0.659 -1.479,-1.24Z" style="fill:#fdd204;fill-opacity:1;"/><path d="M268.178,51.739c0.123,0.437 0.815,0.55 0.938,0.987c0.888,3.142 -0.009,294.221 0.536,294.949c0.346,0.461 1.042,0.571 1.388,1.033l-0.525,1.31c-0.286,-0.057 -56.536,-7.664 -114.903,-6.742c-4.007,-2.001 -1.91,-3.426 -2.267,-29.57c-0.02,-1.459 0.046,-41.43 0.048,-57.002l1.665,-0.996l0.032,-1l0.032,-1l0.008,-1l-0.014,-1l0.019,-1l0.036,-1l-0.016,-1c-0.06,-6.805 0.996,-6.673 0.962,-7.258c-0.023,-0.399 -0.744,-0.524 -0.767,-0.924c0.32,-0.346 0.64,-0.693 0.96,-1.039c1.251,-0.758 1.158,-0.748 1.901,-2.013c0.81,-0.863 0.342,-1.087 1.139,-1.934c0.386,-0.625 0.773,-1.25 1.159,-1.874c1.184,-1.405 1.14,-1.344 2.113,-2.921c0.281,-0.455 1.591,-2.019 1.735,-2.191c0.366,-0.641 0.732,-1.282 1.098,-1.922c0.686,-0.851 0.956,-0.41 1.701,-1.226c0.204,-0.224 -0.081,-0.678 0.123,-0.902c0.362,-0.645 0.724,-1.291 1.085,-1.936l0.32,-0.776c1.367,-0.349 1.394,-0.288 1.477,-0.377c0.372,-0.402 -0.275,-0.553 0.094,-0.952c0.791,-0.914 46.578,-66.859 47.799,-68.512c3.524,-4.771 -4.225,-1.075 -33.503,3.6c-3.876,0.619 -3.593,-0.958 -3.59,-4.847c0.031,-38.474 -0.747,-39.37 2.348,-41.4c21.773,-14.28 22.135,-13.683 23.999,-14.966c3.283,-2.26 0.755,-28.755 1.676,-32.567c0.582,-2.409 4.232,-3.629 4.572,-3.592c3.897,0.426 -0.885,31.514 2.887,30.155c0.018,-0.006 39.498,-26.08 41.271,-27.415c6.644,-5.004 8.844,-3.186 10.461,-9.177Zm-38.175,203.967c0.032,-2.66 -0.621,-10.43 1.479,-11.231c1.895,-0.723 13.141,-5.013 24.058,-8c2.217,-0.607 1.554,1.132 1.811,25.231c0.023,2.138 -0.445,2.794 -24.742,10.118c-3.914,1.18 -2.376,-5.454 -2.605,-16.117Zm0.051,-141.001c0.729,-5.83 2.625,-4.641 7.64,-7.789c4.289,-2.693 8.917,-5.124 9.708,-5.54c8.455,-4.442 10.242,-6.579 10.135,-3.666c-0.743,20.227 -0.085,20.22 -0.154,21.977c-0.146,3.718 -20.63,12.186 -24.738,15.148c-3.652,2.634 -2.44,-1.633 -2.591,-20.131Zm-0.054,77.003c0.47,-16.537 -1.882,-18.422 4.369,-21.456c21.543,-10.454 22.995,-11.495 23.066,-9.5c0.068,1.91 0.671,18.753 -0.153,23.885c-0.275,1.713 -0.659,1.839 -19.79,8.881c-3.457,1.272 -7.579,5.647 -7.492,-1.81Z" style="fill:#12273d;fill-opacity:1;"/><path d="M508.181,234.317c0.584,0.064 0.711,1.133 1.295,1.198c0.261,0.029 -0.171,-1.068 3.076,-1.163c3.545,-0.103 4.043,1.884 5.019,2.321c0.401,0.179 0.914,-0.262 1.315,-0.083c2.863,10.199 -0.515,23.732 1.952,28.73c-0.019,0.543 -0.839,0.843 -0.858,1.387c-0.045,1.266 0.727,0.592 5.607,0.6c0.332,0.001 2.195,0.004 3.969,-1.226l0.999,0.025c0.326,0.239 -0.16,2.29 3.995,2.277c0.22,-0.001 2.912,-0.009 2.185,-1.676c-0.193,-0.442 -0.909,-0.495 -1.101,-0.936c0.82,-10.046 0.699,-9.995 0.396,-20.061c-0.294,-9.776 2.058,-10.669 2.355,-11.156c1.851,0.799 1.853,0.963 1.994,0.861c1.38,-0.999 1.346,-1.062 4.221,-0.941c3.228,-0.307 3.158,-0.2 3.429,-0.245c5.558,6.675 0.353,26.198 2.807,33.118l-0.017,1.36c2.359,0.823 9.313,1.382 10.792,0.978c0.765,2.514 2.792,40.498 -2.264,50.92c-9.627,19.846 -26.759,15.309 -28.226,18.914c-0.458,1.127 -7.246,59.778 -99.562,61.929c-60.108,1.401 -118.945,-16.677 -159.942,-22.22c-13.672,-1.849 -86.621,-15.549 -169.998,-6.06c-7.427,0.845 -35.275,6.592 -44.946,11.775c-0.127,0.068 -0.194,0.222 -0.321,0.29c-7.766,4.17 1.848,-6.395 3.019,-7.705c13.88,-14.579 14.228,-15.423 34.149,-18.288c7.032,-1.012 6.945,-1.141 14.015,-2.006l1.036,1.241l1,-0.052c5.595,-0.091 5.666,0.034 6,-0.312c0.494,-0.51 0.487,-1.381 0.981,-1.891c2.364,-0.215 30.557,-4.028 79.004,-1.066c0.46,0.462 0.555,1.209 1.014,1.671c0.812,0.816 12.915,0.525 14.038,0.498c4.451,2.133 5.45,1.083 10.987,0.896c1.163,-0.039 0.946,-0.468 2.002,-0.99c0.493,0.484 0.479,1.347 0.973,1.831c0.141,0.138 0.185,0.082 7.041,0.165c1.208,0.015 0.948,-0.483 1.985,-1.01c0.342,0.242 -0.206,2.275 3.993,2.152c1.547,-0.045 1.471,0.016 2.981,0.032l1.043,-1.183c0.014,0.015 0.039,2.844 5.997,2.236c2.001,-0.204 3.832,1.586 6.979,1.123c1.679,-0.247 1.565,0.771 20.936,3.405c8.242,1.121 8.412,1.193 9.091,1.479c1.216,0.513 1.344,-0.146 15.898,4.409c8.867,2.775 62.051,13.75 65.117,11.971c1.038,-0.602 0.956,-0.528 1.94,-1.071l1,-0.138c2.998,-0.463 2.923,-0.307 6,-0.284l1,0.099l1,0.535c0.629,0.114 5.159,0.933 7.958,-0.777c41.727,5.133 106.928,11.012 128.536,-40.294c0.11,-0.261 0.227,-0.194 1.508,-3.2c-4,-5.374 -18.102,-0.311 -25.089,-23.973c-1.815,-6.146 -1.344,-21.805 -1.316,-30.03c0.032,-9.373 -0.847,-16.924 5.29,-19.414c0.5,0.098 0.613,0.95 1.113,1.049c1.309,0.257 2.668,-0.058 4.002,-0.044c4.445,0.047 5.526,2.302 7.8,-1.589l-1.155,-1.091c0.136,-25.087 -0.274,-25.564 2.964,-29.299Zm36.436,48.999c0.769,0.287 2.008,-0.323 1.918,2.39c-0.7,20.943 0.555,26.509 -6.199,33.729c-4.58,3.773 -5.01,2.833 -10.786,3.95c-5.17,-0.071 -5.237,0.484 -10.134,-1.208c-14.362,-5.651 -12.047,-11.997 -12.141,-35.47c-0.011,-2.784 -1.324,-5.326 3.302,-5.185c7.018,0.214 6.919,0.728 14.005,0.84c10.095,0.159 10.001,0.824 20.034,0.952Zm-25.2,38.862c4.896,1.692 4.964,1.136 10.134,1.208c-0.5,0.458 -0.479,1.324 -0.979,1.781c-0.024,0.022 -3.35,0.135 -3.994,0.118c-1.601,-0.042 -1.393,-0.458 -2.818,-1.073c-0.162,-0.07 -0.162,-0.023 -2.188,-0.305c-0.052,-0.576 -0.103,-1.153 -0.155,-1.729Z" style="fill:#f8c602;fill-opacity:0.99;"/><path d="M271.578,10.814c11.62,5.607 74.431,37.789 80.891,41.099c10.738,5.502 13.657,8.158 16.427,8.787c0.209,49.445 -0.514,49.453 0.124,53.702c-0.588,0.039 -0.861,0.972 -1.449,1.01c-0.171,0.011 0.002,-0.263 -1.881,-1.015c-4.275,-1.708 -9.486,-4.684 -9.997,-5.048c2.482,-1.244 1.838,-1.829 1.845,-4.641c0.029,-13.166 0.044,-13.124 0.011,-13.998c-0.021,-0.558 0.41,-1.34 -9.079,-5.81c-33.374,-15.72 -48.211,-23.773 -64.795,-31.448c-3.711,-1.718 -2.566,1.513 -2.562,15.254c0.007,22.24 0.088,276.629 0.04,277.999c-0.184,5.19 -5.485,3.429 -10.639,3.312l0.525,-1.31c1.342,-4.036 0.628,-4.098 0.618,-11.999c-0.379,-299.844 0.319,-299.825 -0.079,-325.893Z" style="fill:#12263b;fill-opacity:0.99;"/><path d="M310.425,230.309c1.94,3.527 0.9,3.76 1.017,42.399c0.129,42.557 0.104,42.47 -0.093,85.024c-0.002,0.372 0.107,0.932 0.122,1.012c0.366,1.888 -0.897,2.151 -0.98,2.35c-6.248,-1.759 -6.223,-1.542 -8.958,-2.26c-4.167,-1.093 -2.985,-5.733 -2.985,-7.127c-0.028,-104.954 -0.194,-104.881 -0.081,-114c0.072,-5.764 2.554,-4.379 11.959,-7.399Z" style="fill:#051629;fill-opacity:0.99;"/><path d="M173.437,20.467c0.277,0.581 1.203,0.659 1.479,1.24c0.522,1.096 -11.609,7.771 -12.658,8.528c-7.293,5.268 -78.299,48.391 -88.543,52.803c-8.528,3.673 -7.059,7.549 -15.61,30.509c-12.11,32.517 -30.93,86.546 -32.573,89.143c-2.088,3.299 -0.685,4.068 -3.42,6.851c-0.595,0.606 -0.387,0.671 -0.716,2.166c-0.441,2.002 1.683,1.97 0.782,2.864c-1.028,1.021 -1.365,0.613 -1.996,2.004c-1.773,3.912 -1.462,3.932 -2.952,7.987c-0.566,1.541 -0.786,1.425 -0.961,3.05c-0.194,1.793 -1.871,3.684 -2.09,5.094c-0.149,0.963 0.32,1.756 -0.609,1.294c-0.606,-0.301 -0.838,-1.127 -1.445,-1.428c24.849,-76.357 48.903,-145.065 50.456,-147.857c0.995,-1.789 104.356,-60.008 110.854,-64.248Z" style="fill:#fded0a;fill-opacity:0.99;"/><path d="M156.231,84.474c0.218,0.615 1.283,0.642 1.502,1.257c0.091,0.256 -1.999,4.585 -2.188,4.977c-0.952,1.972 -1.888,2.202 -5.675,9.12c-0.347,0.634 -0.449,0.462 -0.877,1.118c-2.174,3.33 0.613,3.588 1.056,4.025c-3.284,7.001 -29.217,51.108 -31.812,55.521c-6.313,10.737 -10.605,16.642 -6.697,15.753c2.744,-0.624 2.657,-0.542 65.081,-11.068c0.218,0.205 0.679,-0.167 0.896,0.038c2.934,2.761 -1.806,2.068 -2.034,2.035c-0.946,-0.138 -0.818,0.213 -2.108,1.458c-1.008,0.974 -1.587,1.532 -16.871,4.722c-4.811,1.004 -60.259,12.576 -60.586,10.19c-0.155,-1.132 33.45,-55.288 36.413,-60.063c6.92,-12.255 22.641,-36.746 23.901,-39.084Z" style="fill:#fded46;fill-opacity:0.99;"/><path d="M269.63,6.872c-0.832,2.802 -0.957,3.833 1.948,3.942c0.397,26.068 -0.301,26.049 0.079,325.893c0.01,7.902 0.724,7.964 -0.618,11.999c-0.346,-0.461 -1.042,-0.571 -1.388,-1.033c-0.545,-0.727 0.352,-291.807 -0.536,-294.949c-0.123,-0.437 -0.815,-0.55 -0.938,-0.987c-0.013,-9.551 -0.228,-9.466 -0.16,-19.028c0.167,-23.583 -0.522,-24.101 1.613,-25.839Z" style="fill:#667994;fill-opacity:0.99;"/><path d="M355.693,109.349c0.511,0.365 5.722,3.34 9.997,5.048c1.884,0.753 1.711,1.026 1.881,1.015c0.588,-0.039 0.861,-0.972 1.449,-1.01c1.465,1.652 20.971,10.173 26.52,13.451c0.511,-0.127 1.023,-0.254 1.534,-0.38c-0.533,-18.075 -0.034,-18.535 1.428,-18.952c3.751,-1.069 3.886,2.791 3.9,3.194c0.627,17.915 -0.914,19.044 2.353,20.604c14.147,6.758 16.014,8.643 16.221,5.462c0.132,-2.031 -0.867,-9.211 3.503,-7.717c3.789,1.295 -0.031,11.402 3.331,13.194c2.741,1.461 10.268,4.227 12.868,7.409l-0.4,0.946c-0.854,1.614 -0.874,1.544 -1.512,3.255c-0.44,1.179 -0.791,0.731 -2.242,0.935c-0.015,-1.554 0.505,-2.038 -2.184,-3.653c0.064,-0.57 0.874,-0.872 0.938,-1.442c0.007,-0.059 -1.428,-1.166 -1.705,-1.278c-3.06,-1.236 -2.759,-2.48 -6,-1.912l-1.034,0.538c-0.47,-0.406 -3.427,-2.958 -7.121,-3.1c-3.631,-1.831 -10.758,-4.23 -15.902,-7.886c-1.131,-1.975 -0.925,-2.11 -2.975,-3.261c-1.391,-0.78 -1.884,0.402 -1.968,0.374c-0.55,-0.183 -0.369,-1.294 -0.919,-1.476l-1.081,-0.506l-1.186,0.931c-1.525,-0.713 -17.908,-8.374 -18.967,-9.1c-1.336,-0.674 -1.24,-0.874 -2.698,-0.686c-1.062,-0.953 -1.068,-0.833 -2.119,-1.703c-0.951,-0.788 -1.027,-0.474 -1.984,-1.181c-3.69,-4.804 -15.144,-7.647 -19.182,-9.475c-1.46,-0.661 -1.461,-0.673 -2.985,-0.071c-0.347,-0.196 -3.596,-2.029 -3.792,-3.234c-1.015,-6.22 9.065,0.014 12.035,1.665Z" style="fill:#273b52;fill-opacity:0.98;"/><path d="M241.533,359.092c81.518,10.053 89.086,16.109 134.988,22.055c0.017,0.61 0.034,1.221 0.05,1.831l-1,-0.535l-1,-0.099c-3.077,-0.022 -3.002,-0.178 -6,0.284l-1,0.138c-0.984,0.543 -0.902,0.469 -1.94,1.071c-3.066,1.778 -56.25,-9.196 -65.117,-11.971c-14.553,-4.555 -14.682,-3.896 -15.898,-4.409c-0.679,-0.286 -0.849,-0.358 -9.091,-1.479c-19.371,-2.634 -19.257,-3.653 -20.936,-3.405c-3.147,0.463 -4.977,-1.327 -6.979,-1.123c-5.958,0.608 -5.983,-2.22 -5.997,-2.236l-0.081,-0.123Z" style="fill:#fced5e;fill-opacity:0.99;"/><path d="M269.63,6.872c1.954,0.225 12.175,5.442 14.041,6.648c1.38,0.893 17.417,8.987 19.001,9.999c3.558,2.273 4.019,1.263 47.008,23.99c17.361,9.178 18.813,8.655 19.217,13.192c-2.77,-0.629 -5.689,-3.285 -16.427,-8.787c-6.46,-3.31 -69.271,-35.492 -80.891,-41.099c-2.905,-0.109 -2.781,-1.141 -1.948,-3.942Z" style="fill:#47586e;fill-opacity:0.99;"/><path d="M187.885,37.888c-32.321,57.854 -32.026,57.962 -37.836,67.082c-0.442,-0.437 -3.229,-0.695 -1.056,-4.025c0.428,-0.655 0.53,-0.484 0.877,-1.118c3.787,-6.918 4.724,-7.148 5.675,-9.12c0.189,-0.392 2.279,-4.72 2.188,-4.977c-0.218,-0.615 -1.283,-0.642 -1.502,-1.257c2.089,-4.188 2.394,-6.161 5.125,-8.172c3.456,-2.545 3.727,-7.07 5.125,-7.692c2.064,-0.918 7.19,-11.993 8.136,-12.882c1.078,-1.014 0.434,-1.299 1.32,-2.561c7.499,-10.683 5.979,-11.589 6.809,-12.353c1.61,-1.483 1.052,-1.767 2.166,-3.638c1.036,-1.74 1.458,-0.58 2.974,0.711Z" style="fill:#fce106;fill-opacity:0.99;"/><path d="M544.617,283.316c0.651,-0.463 1.303,-0.926 1.954,-1.389c3.373,1.423 2.622,2.551 2.584,22.78c-0.015,7.973 -2.316,10.856 -2.914,11.604c-4.112,5.151 -4.06,5.23 -4.426,5.396c-0.198,0.089 -0.104,-0.16 -1.48,-2.271c6.754,-7.221 5.499,-12.786 6.199,-33.729c0.091,-2.714 -1.149,-2.103 -1.918,-2.39Z" style="fill:#f3b501;fill-opacity:0.98;"/><path d="M155.35,240.525c0.023,0.399 0.744,0.524 0.767,0.924c0.033,0.585 -1.023,0.453 -0.962,7.258l0.016,1l-0.036,1l-0.019,1l0.014,1l-0.008,1l-0.032,1l-0.032,1l-1.665,0.996c-0.006,-10.776 -0.929,-11.76 1.958,-16.178Z" style="fill:#101f32;fill-opacity:0.98;"/><path d="M195.557,355.153c1.362,0.013 3.579,0.035 16.994,1.006c-0.647,0.387 -1.295,0.775 -1.942,1.162c-1.123,0.027 -13.227,0.318 -14.038,-0.498c-0.46,-0.462 -0.555,-1.209 -1.014,-1.671Z" style="fill:#fbf879;fill-opacity:0.99;"/><path d="M429.755,150.388c1.528,0.587 3.055,1.174 4.583,1.761c2.689,1.615 2.17,2.1 2.184,3.653c-5.775,0.13 -6.76,-2.553 -7.951,-3.849l1.184,-1.565Z" style="fill:#0b1722;fill-opacity:0.39;"/><path d="M212.551,356.16c2.565,0.233 2.462,0.071 5.049,0.306c0.476,0.043 0.44,0.047 5.941,0.64l0.058,0.123c-1.056,0.522 -0.838,0.951 -2.002,0.99c-5.538,0.186 -6.536,1.237 -10.987,-0.896c0.647,-0.387 1.295,-0.775 1.942,-1.162Z" style="fill:#fbf981;fill-opacity:0.99;"/><path d="M505.217,263.616l1.155,1.091c-2.274,3.891 -3.355,1.637 -7.8,1.589c-1.334,-0.014 -2.693,0.301 -4.002,0.044c-0.5,-0.098 -0.613,-0.95 -1.113,-1.049c3.019,-0.527 2.967,-0.592 7.113,-0.599c2.512,-0.004 2.583,0.33 4.646,-1.077Z" style="fill:#f5ed8e;fill-opacity:0.98;"/><path d="M182.582,178.73c-0.388,-0.287 -3.794,-2.805 -0.965,-5.96c1.204,-1.342 1.409,-0.78 3.156,-0.409c2.403,0.511 -0.369,1.943 -2.191,6.369Z" style="fill:#f9c700;fill-opacity:0.99;"/><path d="M508.181,234.317c6.404,-4.981 10.066,0.897 10.705,2.273c-0.401,-0.179 -0.914,0.262 -1.315,0.083c-0.976,-0.436 -1.474,-2.424 -5.019,-2.321c-3.247,0.094 -2.814,1.191 -3.076,1.163c-0.584,-0.064 -0.711,-1.133 -1.295,-1.198Z" style="fill:#fcf385;fill-opacity:0.99;"/><path d="M426.537,148.056l1.034,-0.538c3.241,-0.568 2.94,0.676 6,1.912c0.277,0.112 1.711,1.219 1.705,1.278c-0.064,0.57 -0.874,0.872 -0.938,1.442c-1.528,-0.587 -3.055,-1.174 -4.583,-1.761c-0.405,-0.203 -0.81,-0.406 -1.215,-0.608c-0.667,-0.575 -1.335,-1.15 -2.002,-1.724Z" style="fill:#112235;fill-opacity:0.99;"/><path d="M519.417,322.179c4.896,1.692 4.964,1.136 10.134,1.208c-0.5,0.458 -0.479,1.324 -0.979,1.781c-0.024,0.022 -3.35,0.135 -3.994,0.118c-1.601,-0.042 -1.393,-0.458 -2.818,-1.073c-0.162,-0.07 -0.162,-0.023 -2.188,-0.305c-0.052,-0.576 -0.103,-1.153 -0.155,-1.729Z" style="fill:#efe25c;fill-opacity:0.85;"/><path d="M550.836,267.347c5.605,1.362 7.87,-0.67 10.775,2.338c-1.479,0.405 -8.433,-0.154 -10.792,-0.978l0.017,-1.36Z" style="fill:#f9fb90;fill-opacity:0.98;"/><path d="M223.541,357.105c0.881,0.073 5.052,0.42 11.004,1.034l-0.948,0.074c-1.037,0.528 -0.777,1.025 -1.985,1.01c-6.857,-0.083 -6.9,-0.026 -7.041,-0.165c-0.493,-0.484 -0.479,-1.347 -0.973,-1.831l-0.058,-0.123Z" style="fill:#faf87a;fill-opacity:0.98;"/><path d="M116.553,356.22c-0.494,0.51 -0.487,1.381 -0.981,1.891c-0.334,0.345 -0.405,0.221 -6,0.312l-1,0.052l-1.036,-1.241c3.006,-0.338 6.011,-0.676 9.017,-1.014Z" style="fill:#f3e354;fill-opacity:0.89;"/><path d="M520.839,265.32c4.383,0.569 4.292,0.474 8.718,0.761c-1.774,1.23 -3.637,1.227 -3.969,1.226c-4.88,-0.008 -5.652,0.666 -5.607,-0.6c0.019,-0.543 0.839,-0.843 0.858,-1.387Z" style="fill:#eddc79;fill-opacity:0.82;"/><path d="M234.545,358.14c0.561,0.063 3.062,0.347 6.988,0.952l0.081,0.123l-1.043,1.183c-1.51,-0.016 -1.433,-0.077 -2.981,-0.032c-4.199,0.123 -3.651,-1.91 -3.993,-2.152l0.948,-0.074Z" style="fill:#e8e05d;fill-opacity:0.86;"/><path d="M530.556,266.106c1.693,-0.112 3.386,-0.224 5.079,-0.336c0.193,0.442 0.909,0.495 1.101,0.936c0.727,1.668 -1.965,1.676 -2.185,1.676c-4.155,0.013 -3.669,-2.038 -3.995,-2.277Z" style="fill:#efdd61;fill-opacity:0.87;"/><path d="M314.448,177.681c0.145,0.198 0.591,-0.194 0.736,0.004c0.364,0.497 0.337,3.701 0.335,4.024c-0.032,3.8 0.476,3.877 -1.222,7.212c-0.294,-0.388 -0.589,-0.775 -0.883,-1.163c2.095,-3.45 1.04,-3.684 1.034,-10.078Z" style="fill:#0a1729;fill-opacity:0.85;"/><path d="M376.521,381.147c2.669,0.351 5.339,0.703 8.008,1.054c-2.799,1.709 -7.329,0.891 -7.958,0.777c-0.017,-0.61 -0.034,-1.221 -0.05,-1.831Z" style="fill:#e5d965;fill-opacity:0.85;"/><path d="M541.505,232.481c2.739,0.081 3.121,-0.996 6.524,1.747c-0.271,0.045 -0.201,-0.062 -3.429,0.245c-1.901,-0.989 -1.892,-0.977 -2.053,-1.068c-0.65,-0.367 -0.388,-0.556 -1.042,-0.925Z" style="fill:#e4d998;fill-opacity:0.87;"/><path d="M541.505,232.481c0.654,0.369 0.392,0.558 1.042,0.925c0.161,0.091 0.152,0.079 2.053,1.068c-2.875,-0.121 -2.841,-0.058 -4.221,0.941c-0.141,0.102 -0.143,-0.062 -1.994,-0.861c1.384,-1.312 1.323,-1.336 3.119,-2.073Z" style="fill:#f2e387;fill-opacity:0.96;"/><path d="M314.448,177.681c0.005,6.393 1.061,6.628 -1.034,10.078c0.623,-9.273 0.193,-9.224 0.31,-10.017c0.035,-0.24 0.69,0.179 0.725,-0.061Z" style="fill:#0b1828;fill-opacity:0.71;"/><path d="M222.518,228.892c-1.804,-0.256 -2.223,-0.675 -1.295,-2.278c1.066,-1.84 1.127,0.139 1.295,2.278Z" style="fill:#11293f;fill-opacity:1;"/><path d="M158.211,237.473c-0.743,1.265 -0.65,1.255 -1.901,2.013c0.979,-1.048 0.925,-0.991 1.901,-2.013Z" style="fill:#212520;fill-opacity:0.65;"/><path d="M314.985,122.908c0.246,0.932 0.492,1.864 0.738,2.796c-0.641,-1.379 -0.822,-1.28 -0.738,-2.796Z" style="fill:#0c1827;fill-opacity:0.73;"/><path d="M373.721,123.347c1.457,-0.188 1.362,0.012 2.698,0.686c-1.393,-0.256 -1.309,-0.282 -2.698,-0.686Z" style="fill:#091723;fill-opacity:0.73;"/><path d="M168.366,222.567c-0.362,0.645 -0.724,1.291 -1.085,1.936c0.407,-1.098 0.385,-1.022 1.085,-1.936Z" style="fill:#28291f;fill-opacity:0.6;"/><path d="M170.257,220.461c-0.369,0.399 0.278,0.551 -0.094,0.952c-0.083,0.089 -0.109,0.028 -1.477,0.377c0.668,-0.849 0.627,-0.826 1.571,-1.329Z" style="fill:#1f2219;fill-opacity:0.62;"/><path d="M165.456,226.631c-0.366,0.641 -0.732,1.282 -1.098,1.922c0.366,-0.641 0.732,-1.282 1.098,-1.922Z" style="fill:#353328;fill-opacity:0.51;"/><path d="M491.982,271.379c0.318,-1.095 -0.599,-1.998 0.472,-1.625c1.068,0.372 -0.163,0.56 -0.472,1.625Z" style="fill:#f8b700;fill-opacity:1;"/><path d="M160.51,233.665c-0.386,0.625 -0.773,1.25 -1.159,1.874c0.386,-0.625 0.773,-1.25 1.159,-1.874Z" style="fill:#2f3229;fill-opacity:0.52;"/></g></svg>